<svg width="1232" height="671" viewBox="0 0 1232 671" fill="none" xmlns="http://www.w3.org/2000/svg">
<g clip-path="url(#clip0_71_2387)">
<path d="M634.037 72.044C634.037 72.044 857.55 71.0303 922.28 78.7342C980.515 85.6779 1028.89 93.7112 1058.17 145.941C1087.45 198.17 1084.13 291.669 1085.67 318.455C1087.21 345.241 1085.67 394.785 1087.21 456.391C1088.75 517.996 1092.77 591.652 1068.88 621.112C1041.18 655.26 992.679 658.618 918.696 663.965C844.713 669.325 576.714 672.898 480.749 669.921C388.281 667.044 142.873 673.329 101.254 634.493C59.6362 595.669 78.5772 497.964 74.7108 445.684C69.7583 379.035 67.0649 213.046 88.7211 157.547C111.746 98.5515 171.219 77.4038 237.491 74.7176C303.785 72.044 634.037 72.044 634.037 72.044Z" fill="#F3EBFC"/>
<path d="M191.602 0H180.857V393.047H191.602V0Z" fill="#FFA154"/>
<path d="M10.7447 0H0V393.047H10.7447V0Z" fill="#FFA154"/>
<path d="M190.747 50.5262V40.1216L2.81599 40.1216V50.5262L190.747 50.5262Z" fill="#FFA154"/>
<path d="M190.749 111.147V100.743L2.81807 100.743V111.147L190.749 111.147Z" fill="#FFA154"/>
<path d="M189.488 170.542V160.138L1.55701 160.138V170.542L189.488 170.542Z" fill="#FFA154"/>
<path d="M188.853 229.332V218.927L0.922684 218.927V229.332L188.853 229.332Z" fill="#FFA154"/>
<path d="M188.85 289.341V278.936L0.919006 278.936V289.341L188.85 289.341Z" fill="#FFA154"/>
<path d="M188.85 351.187V340.782L0.919388 340.782V351.187L188.85 351.187Z" fill="#FFA154"/>
<path d="M299.161 276.764C299.161 276.764 290.923 272.245 287.638 272.033C284.352 271.821 281.387 274.659 281.05 276.747C280.713 278.836 282.735 281.071 285.346 282.767C287.975 284.448 293.113 287.792 293.113 287.792L299.161 276.764Z" fill="#A66BE1"/>
<path d="M281.623 283.763C281.623 283.763 282.297 282.767 285.346 281.609C288.396 280.451 290.502 280.679 290.502 280.679L287.907 289.75L281.623 283.763Z" fill="#A66BE1"/>
<path d="M473.481 575.686C473.481 575.686 474.795 602.261 472.824 602.898C470.869 603.534 371.537 606.063 371.537 606.063C371.537 606.063 369.583 598.477 374.806 592.783C380.028 587.089 411.988 579.813 411.988 579.813L418.592 577.595L420.546 570.009L473.481 570.645V575.686Z" fill="#391457"/>
<path d="M596.567 580.14C596.567 580.14 597.342 606.732 595.371 607.335C593.4 607.939 494.051 608.591 494.051 608.591C494.051 608.591 492.249 600.956 497.589 595.361C502.93 589.765 535.007 583.093 535.007 583.093L541.662 581.004L543.768 573.451L596.668 575.082L596.567 580.14Z" fill="#391457"/>
<path d="M409.916 237.773C409.916 237.773 369.499 269.683 368.808 271.657C368.117 273.631 386.616 298.461 391.383 297.841C396.151 297.222 435.102 264.463 435.102 264.463L409.916 237.773Z" fill="#A66BE1"/>
<path d="M440.494 300.876C440.494 300.876 421.962 343.015 411.297 372.641C400.633 402.284 397.853 414.324 396.926 424.504C396 434.683 398.78 478.209 402.031 507.395C405.283 536.565 406.664 578.704 408.989 579.161C411.314 579.617 472.942 581.02 475.267 577.774C477.591 574.527 468.309 465.256 466.455 449.97C464.602 434.683 464.602 434.683 464.602 434.683C464.602 434.683 478.501 402.267 483.606 388.841C488.711 375.415 497.05 342.999 499.358 330.959C501.683 318.919 500.757 297.156 500.757 297.156L440.494 300.876Z" fill="#6E369E"/>
<path d="M531.992 292.702C531.992 292.702 547.508 308.902 550.507 326.048C553.506 343.178 549.007 355.218 549.007 355.218C549.007 355.218 557.01 393.181 560.514 408.01C564.018 422.823 569.022 442.743 568.517 444.129C568.011 445.516 505.44 459.416 501.936 454.309C498.432 449.219 484.92 395.97 479.916 370.504C474.913 345.038 468.898 301.039 468.898 301.039L531.992 292.702Z" fill="#6E369E"/>
<path d="M473.7 201.181C473.7 201.181 495.568 200.235 504.328 205.895C513.072 211.54 519.39 224.249 526.685 242.618C533.979 260.972 549.53 289.684 548.081 292.98C546.615 296.275 526.685 301.92 507.731 305.215C488.778 308.511 449.878 311.333 446.963 311.806C444.048 312.279 438.691 312.752 437.731 310.86C436.753 308.984 434.327 279.798 433.35 275.083C432.373 270.369 429.459 267.073 426.544 255.784C423.629 244.478 433.839 229.893 439.179 222.829C444.52 215.765 447.991 208.702 451.326 207.298C454.679 205.895 473.7 201.181 473.7 201.181Z" fill="#6E369E"/>
<path d="M453.382 207.837C453.382 207.837 449.406 202.829 435.052 209.566C420.698 216.288 396.151 236.109 394.517 238.1C392.883 240.09 408.905 252.88 413.858 257.774C418.811 262.669 434.378 274.839 436.315 273.746C438.253 272.653 449.894 255.344 454.696 247.709C463.204 234.168 462.783 229.094 461.94 221.198C461.081 213.286 453.382 207.837 453.382 207.837Z" fill="#6E369E"/>
<path d="M435.54 175.764C435.54 174.818 432.862 174.116 433.114 169.173C433.35 164.23 437.242 158.112 444.79 157.867C452.32 157.639 464.484 159.515 466.186 160.461C467.887 161.407 478.569 168.944 480.523 173.398C483.926 181.164 482.949 185.634 477.12 188.929C471.291 192.225 463.507 190.577 463.507 190.577L435.54 175.764Z" fill="#391457"/>
<path d="M464.333 187.053C464.333 187.053 465.074 188.113 465.781 189.516C466.523 190.919 467.365 198.456 465.293 201.05C463.221 203.644 458.604 205.993 456.549 207.299C454.477 208.587 447.805 208.587 445.244 205.993C444.234 204.966 443.139 203.008 442.128 201.001C441.269 199.256 440.477 197.494 439.904 196.303C439.483 195.406 439.163 194.818 439.045 194.818C438.556 194.818 434.782 195.471 433.687 194.052C433.215 193.448 435.035 186.107 435.136 185.16C435.254 184.214 434.159 181.865 434.412 178.096C434.647 174.328 435.389 172.093 435.389 172.093C435.389 172.093 440.746 174.442 444.015 176.204C447.3 177.966 456.532 180.788 456.532 180.788C456.532 180.788 457.021 178.553 458.84 176.906C460.66 175.258 463.574 175.029 465.647 175.845C467.719 176.677 468.797 179.973 468.073 182.208C467.365 184.475 464.333 187.053 464.333 187.053Z" fill="#A66BE1"/>
<path d="M465.124 177.966C464.686 177.852 464.181 177.934 463.76 178.08C462.631 178.488 461.822 179.418 461.233 180.413C460.643 181.408 460.256 182.501 459.935 183.594C459.7 184.394 460.98 184.72 461.216 183.937C461.485 183.024 461.789 182.159 462.227 181.343C462.395 181.033 462.564 180.74 462.783 180.462C462.816 180.413 462.867 180.348 462.901 180.299C462.8 180.43 462.951 180.25 462.968 180.217C463.052 180.12 463.153 180.022 463.254 179.924C463.339 179.842 463.423 179.761 463.507 179.695C463.541 179.663 463.591 179.63 463.625 179.598C463.457 179.728 463.625 179.598 463.659 179.565C463.692 179.532 464.147 179.288 464.147 179.304C464.147 179.32 463.962 179.369 464.114 179.32C464.147 179.304 464.181 179.304 464.215 179.288C464.282 179.271 464.35 179.239 464.434 179.222C464.552 179.206 464.686 179.239 464.451 179.206C464.501 179.206 464.552 179.19 464.602 179.19C464.686 179.19 464.771 179.206 464.855 179.206C464.804 179.206 464.636 179.173 464.754 179.19C464.771 179.19 464.771 179.19 464.771 179.19C465.596 179.418 465.933 178.178 465.124 177.966Z" fill="#391457"/>
<path d="M442.633 179.499C441.858 179.385 441.066 179.304 440.275 179.271C438.876 179.206 437.427 179.238 436.096 179.614C435.288 179.842 435.625 181.082 436.45 180.853C437.68 180.511 439.011 180.495 440.291 180.56C440.797 180.576 441.302 180.625 441.808 180.674C441.892 180.69 441.976 180.69 442.06 180.707C442.279 180.739 441.976 180.69 442.111 180.707C442.178 180.723 442.229 180.723 442.296 180.739C442.65 180.788 443.004 180.658 443.105 180.299C443.189 179.989 442.987 179.548 442.633 179.499Z" fill="#391457"/>
<path d="M444.891 199.647C444.133 200.153 443.055 200.643 442.145 201.018C441.286 199.272 440.494 197.51 439.921 196.319C440.881 195.879 442.701 194.949 443.914 193.774C445.615 192.127 448.041 192.127 448.547 194.003C449.019 195.895 446.475 198.587 444.891 199.647Z" fill="white"/>
<path d="M439.314 182.632C437.545 183.007 438.304 186.449 440.072 186.09C441.858 185.715 441.1 182.257 439.314 182.632Z" fill="#391457"/>
<path d="M454.679 205.896C454.679 205.896 457.223 210.578 456.684 210.235C456.145 209.876 453.584 211.557 453.045 211.899C452.506 212.258 454.14 238.556 455.05 238.915C455.959 239.274 477.844 208.914 477.288 208.196C476.749 207.494 474.003 206.613 474.003 206.613L464.518 187.901L454.679 205.896Z" fill="#A66BE1"/>
<path d="M465.428 184.475C465.428 184.475 471.257 192.942 473.7 196.482C476.126 200.006 478.569 203.546 478.569 203.546C478.569 203.546 486.352 203.775 486.099 204.966C485.863 206.14 455.05 238.915 455.05 238.915L463.743 205.912L460.828 189.206L465.428 184.475Z" fill="#A66BE1"/>
<path d="M459.598 160.461C459.598 160.461 453.517 157.639 454.73 152.222C455.943 146.806 460.812 140.46 468.342 142.336C475.873 144.212 478.552 146.578 483.404 150.803C488.273 155.045 488.02 159.988 483.64 164.458C479.259 168.928 466.624 164.23 466.624 164.23L459.598 160.461Z" fill="#391457"/>
<path d="M565.754 432.089C565.754 432.089 576.57 464.962 585.97 492.288C595.371 519.614 605.715 576.093 603.829 576.567C601.942 577.023 536.608 583.043 534.721 580.727C532.834 578.41 513.089 497.378 507.462 480.705C501.818 464.032 496.646 440.883 496.646 440.883L565.754 432.089Z" fill="#6E369E"/>
<path d="M378.681 266.73C378.681 266.73 303.996 278.134 303.575 280.336C303.154 282.539 309.034 309.294 310.685 310.175C312.336 311.056 387.239 300.925 391.367 297.841C395.528 294.758 378.681 266.73 378.681 266.73Z" fill="#A66BE1"/>
<path d="M591.614 559.649C591.614 559.649 608.714 560.563 615.925 563.14C623.136 565.718 632.772 572.488 643.824 581.151C652.888 588.264 652.164 593.273 648.002 600.777C643.824 608.281 640.994 614.742 634.845 614.562C628.712 614.367 602.026 610.337 591.294 605.312C580.546 600.271 567.169 585.915 567.169 585.915L591.614 559.649Z" fill="white"/>
<path d="M273.452 446.789C273.452 446.789 302.547 429.985 348.709 441.062C399.352 453.216 419.754 495.437 418.339 531.915C416.873 569.976 402.166 617.76 336.04 622.768C269.931 627.776 234.046 586.29 229.834 554.804C225.622 523.334 227.021 474.686 273.452 446.789Z" fill="#D7BEF4"/>
<path d="M273.789 447.343C276.771 445.63 280.107 444.391 283.375 443.297C292.102 440.345 301.284 438.697 310.499 438.142C335.619 436.625 362.676 442.368 382.926 457.328C399.504 469.563 410.674 487.557 415.29 507.151C419.249 523.97 418.188 541.916 414.195 558.654C410.253 575.213 402.351 591.037 389.092 602.474C372.009 617.189 348.692 622.377 326.336 622.54C303.744 622.719 281.033 616.977 262.703 603.877C248.788 593.925 237.449 579.813 232.479 563.63C230.205 556.24 229.582 548.409 229.177 540.741C228.689 531.573 228.975 522.339 230.34 513.252C233.49 492.403 242.756 472.81 258.829 458.339C263.428 454.195 268.465 450.557 273.789 447.343C274.513 446.903 273.84 445.794 273.115 446.234C253.218 458.274 238.848 476.431 232.311 498.276C226.92 516.303 226.667 535.472 229.076 553.988C231.148 569.911 239.656 584.528 251.18 595.866C266.292 610.728 286.559 619.685 307.753 622.621C331.154 625.868 357.436 623.355 378.175 611.658C394.18 602.62 405.451 588.085 411.718 571.346C414.7 563.385 416.604 555.065 417.75 546.68C418.912 538.098 419.485 529.354 418.76 520.724C417.143 501.065 409.326 481.831 395.713 467.051C378.883 448.763 354.791 439.676 330.009 437.245C311.847 435.467 292.22 437.261 275.575 444.994C274.749 445.386 273.907 445.777 273.115 446.234C272.391 446.658 273.048 447.768 273.789 447.343Z" fill="#391457"/>
<path d="M345.239 234.511C345.239 234.527 345.222 234.527 345.222 234.543C344.245 236.566 342.762 238.899 340.757 239.813C340.757 239.813 332.334 266.192 325.915 286.34C319.496 306.504 314.273 316.146 310.836 325.331C304.451 342.412 289.929 380.847 288.665 381.875C287.402 382.903 252.966 367.6 252.966 367.6C252.966 367.6 274.547 318.495 280.124 305.003C282.449 299.408 287.857 287.417 293.618 273.681C293.635 273.664 293.635 273.648 293.652 273.615C300.29 259.487 311.763 234.429 311.763 234.429C311.763 234.429 311.763 233.564 311.106 230.35C310.87 229.208 310.988 227.691 311.258 226.207C311.814 224.526 312.235 223.238 312.521 222.471C315.688 213.612 317.39 202.241 320.962 200.447C324.516 198.652 327.38 200.333 327.482 202.046C327.515 202.519 327.33 203.351 327.06 204.297C328.88 199.256 331.458 192.535 332.856 191.034C335.147 188.554 338.011 187.983 338.988 189.647C339.527 190.577 339.527 191.474 339.409 192.078C339.847 190.887 340.926 188.717 343.116 188.146C346.182 187.347 347.395 189.223 347.462 190.512C347.53 191.654 347.092 193.318 347.008 193.693C347.176 193.367 348.086 191.882 350.916 192.698C353.966 193.579 352.399 197.102 352.298 197.347C352.432 197.266 354.067 196.303 355.465 198.913C356.931 201.605 350.562 219.143 345.239 234.511Z" fill="white"/>
<path d="M217.317 349.834C217.317 349.834 218.227 342.265 211.622 339.181C205.018 336.082 200.436 341.482 198.448 345.658C196.46 349.834 193.461 359.867 183.588 365.757C173.716 371.63 159.8 380.733 158.52 393.882C157.256 407.048 166.808 415.564 178.989 419.234C191.17 422.905 209.904 416.999 214.587 409.234C219.271 401.468 222.792 377.03 221.815 367.421C220.855 357.812 217.317 349.834 217.317 349.834Z" fill="#391457"/>
<path d="M245.182 370.798C245.182 370.798 251.55 365.741 253.353 366.083C255.139 366.426 271.211 368.171 280.663 370.684C290.114 373.196 295.387 380.228 296.499 384.469C296.499 384.469 332.418 392.496 331.255 395.563C330.093 398.63 312.791 430.866 306.018 444.537C299.228 458.192 299.228 458.192 299.228 458.192C299.228 458.192 254.583 444.603 245.435 439.496C236.287 434.39 226.482 425.45 224.746 418.239C223.011 411.028 213.206 393.931 215.649 389.934C218.075 385.937 245.182 370.798 245.182 370.798Z" fill="#6E369E"/>
<path d="M215.598 347.713C215.598 347.713 223.584 347.73 227.594 347.958C231.603 348.187 235.04 346.278 236.068 348.806C237.095 351.335 235.866 353.113 235.866 353.113C235.866 353.113 247.625 357.225 248.316 361.923C249.023 366.605 241.678 378.155 233.81 380.276C225.942 382.397 220.551 380.961 220.551 380.961C220.551 380.961 215.952 386.133 211.184 384.028C205.372 381.451 207.815 375.186 209.533 374.24C211.252 373.294 211.252 373.294 211.252 373.294L215.177 372.233C215.177 372.233 215.784 367.046 213.829 363.717C213.812 363.701 215.784 351.139 215.598 347.713Z" fill="white"/>
<path d="M198.111 422.742C199.29 415.352 201.935 400.702 207.933 394.454C213.863 388.27 223.82 388.76 230.188 392.904C236.556 397.047 240.364 405.857 239.707 415.613C239.201 422.954 224.982 507.82 221.95 524.003C218.934 540.187 206.72 596.584 205.456 597.302C204.193 598.004 174.305 593.664 173.564 591.788C173.16 590.76 176.984 571.934 180.792 549.111C183.925 530.3 187.632 505.927 188.693 498.961C191.827 478.601 195.095 441.764 198.111 422.742Z" fill="white"/>
<path d="M207.832 588.607C207.832 588.607 208.152 594.496 203.721 599.08C199.307 603.665 185.458 617.776 181.095 617.695C176.748 617.613 175.316 614.269 176.748 612.017C178.18 609.766 188.929 601.413 186.991 600.271C185.071 599.129 157.677 609.913 151.561 611.805C145.446 613.681 143.542 612.849 143.711 610.353C143.896 607.857 147.215 606.128 147.215 606.128C147.215 606.128 141.436 608.608 139.465 606.536C137.494 604.464 138.589 601.609 139.768 600.614C140.964 599.619 142.177 599.243 142.177 599.243C142.177 599.243 139.768 600.614 139.28 597.221C138.791 593.827 144.57 591.657 144.57 591.657C144.57 591.657 144.789 590.091 147.501 588.395C150.214 586.698 175.384 581.004 176.597 580.319C177.843 579.634 207.832 588.607 207.832 588.607Z" fill="white"/>
<path d="M245.014 367.796C245.014 367.796 252.494 373.8 254.314 374.55C256.133 375.317 256.639 383.556 246.345 388.695C238.123 392.806 232.378 391.011 231.401 389.331C230.424 387.667 218.614 379.444 218.614 379.444L245.014 367.796Z" fill="white"/>
<path d="M600.543 513.154C600.594 516.645 587.975 540.284 585.92 540.382C583.898 540.497 546.227 528.783 526.027 518.717C525.792 518.603 525.556 518.489 525.337 518.375C517.317 514.312 504.345 508.391 491.17 502.403C471.442 493.447 451.276 484.36 446.727 481.26C439.112 476.072 313.06 426.021 313.06 426.021L328.711 393.148C328.711 393.148 342.206 386.182 363.939 389.885C384.24 393.328 473.363 435.989 487.194 443.656C494.388 447.653 503.84 451.291 514.571 456.071C524.444 460.46 535.378 465.795 546.649 473.234C570.134 488.748 600.476 509.663 600.543 513.154Z" fill="#FFA154"/>
<path d="M562.62 581.314C562.62 581.314 526.213 573.402 500.723 562.863C490.311 558.556 478.838 553.009 468.342 547.609C453.18 539.795 440.072 532.29 435.153 529.256C426.847 524.101 329.082 493.088 315.52 483.169C299.852 471.733 296.904 457.376 296.904 457.376L313.026 426.021C313.026 426.021 335.652 428.354 370.139 445.418C399.487 459.938 464.737 487.264 492.468 499.793C497.337 501.995 501.043 503.741 503.199 504.866C507.681 507.216 516.256 512.501 526.028 518.717C547.845 532.649 575.576 551.313 576.536 552.716C577.934 554.739 562.62 581.314 562.62 581.314Z" fill="#FFA154"/>
<path d="M295.825 384.469C295.606 387.797 294.764 391.452 292.911 394.29C292.22 395.351 291.327 396.264 290.181 396.851C289.423 397.227 290.097 398.336 290.855 397.961C293.147 396.819 294.494 394.551 295.404 392.316C296.23 390.261 296.718 388.091 297.005 385.905C297.072 385.432 297.123 384.959 297.156 384.485C297.207 383.653 295.876 383.653 295.825 384.469Z" fill="#391457"/>
<path d="M279.888 412.203C280.612 417.962 277.512 424.014 273.166 427.75C270.453 430.067 267.185 431.682 263.765 432.808C262.973 433.069 263.31 434.308 264.119 434.047C269.712 432.188 274.935 429.023 278.102 424.063C279.989 421.143 281.067 417.733 281.235 414.291C281.269 413.606 281.286 412.888 281.202 412.203C281.118 411.387 279.787 411.371 279.888 412.203Z" fill="#391457"/>
<path d="M326.841 201.915C325.561 206.157 324.264 210.398 322.983 214.64C322.798 215.26 322.613 215.88 322.427 216.484C322.192 217.283 323.455 217.609 323.708 216.826C324.988 212.584 326.285 208.343 327.566 204.101C327.751 203.481 327.936 202.861 328.122 202.258C328.358 201.458 327.077 201.116 326.841 201.915Z" fill="#391457"/>
<path d="M338.584 191.392C336.512 197.575 334.456 203.775 332.384 209.958C332.081 210.839 331.794 211.736 331.491 212.617C331.222 213.4 332.502 213.742 332.772 212.959C334.844 206.776 336.899 200.577 338.971 194.394C339.275 193.513 339.561 192.616 339.864 191.735C340.134 190.952 338.853 190.609 338.584 191.392Z" fill="#391457"/>
<path d="M346.115 192.681C343.79 198.995 341.465 205.308 339.14 211.605C338.803 212.519 338.466 213.416 338.129 214.33C337.842 215.113 339.123 215.439 339.409 214.673C341.734 208.359 344.059 202.045 346.384 195.748C346.721 194.835 347.058 193.937 347.395 193.024C347.681 192.241 346.401 191.914 346.115 192.681Z" fill="#391457"/>
<path d="M351.641 197.2C349.653 202.633 347.648 208.065 345.66 213.498C345.373 214.281 345.087 215.064 344.801 215.847C344.514 216.63 345.795 216.956 346.081 216.19C348.069 210.757 350.074 205.324 352.062 199.892C352.348 199.109 352.635 198.326 352.921 197.543C353.191 196.76 351.927 196.433 351.641 197.2Z" fill="#391457"/>
<path d="M326.487 220.627C326.555 220.676 326.639 220.725 326.706 220.79C326.538 220.66 326.841 220.888 326.892 220.937C327.01 221.019 327.111 221.117 327.212 221.214C327.919 221.818 328.56 222.487 329.149 223.188C331.002 225.424 332.215 228.181 332.569 231.019C332.67 231.819 334.001 231.835 333.883 231.019C333.361 226.859 331.272 222.895 327.97 220.154C327.7 219.942 327.431 219.714 327.144 219.518C326.454 219.061 325.797 220.17 326.487 220.627Z" fill="#391457"/>
<path d="M295.033 289.016C297.611 292.262 300.206 295.525 302.783 298.771C303.154 299.228 303.525 299.701 303.895 300.158C304.401 300.794 305.563 300.158 305.041 299.506C302.463 296.259 299.869 292.996 297.291 289.75C296.92 289.293 296.55 288.82 296.179 288.363C295.674 287.727 294.511 288.363 295.033 289.016Z" fill="#391457"/>
<path d="M147.417 606.764C153.533 604.496 159.648 602.229 165.798 600.043C166.909 599.651 168.038 599.194 169.201 598.884C170.026 598.672 169.672 597.432 168.847 597.644C166.118 598.346 163.439 599.521 160.794 600.467C157.054 601.821 153.33 603.191 149.607 604.562C148.765 604.872 147.906 605.182 147.063 605.508C146.288 605.818 146.625 607.058 147.417 606.764Z" fill="#391457"/>
<path d="M142.397 599.88C149.018 597.661 155.639 595.442 162.26 593.207C163.203 592.897 164.13 592.571 165.073 592.261C165.865 592 165.528 590.76 164.719 591.021C158.098 593.24 151.477 595.459 144.856 597.694C143.913 598.004 142.986 598.33 142.043 598.64C141.251 598.917 141.588 600.141 142.397 599.88Z" fill="#391457"/>
<path d="M144.789 592.277C150.214 590.581 155.655 588.884 161.08 587.187C161.855 586.943 162.63 586.698 163.422 586.453C164.231 586.208 163.877 584.968 163.068 585.213C157.643 586.91 152.202 588.607 146.777 590.303C146.002 590.548 145.227 590.793 144.435 591.037C143.626 591.298 143.98 592.538 144.789 592.277Z" fill="#391457"/>
<path d="M602.97 514.525C603.02 518.016 587.975 540.268 585.92 540.382C583.898 540.496 546.228 528.783 526.028 518.717C547.845 532.649 579.215 553.156 580.192 554.559C581.59 556.582 565.181 582.668 565.181 582.668C565.181 582.668 526.23 573.402 500.723 562.847C490.311 558.54 478.838 552.993 468.342 547.593L491.154 502.387L492.468 499.777L514.538 456.039C524.41 460.427 535.344 465.762 546.615 473.201C570.134 488.748 602.902 511.05 602.97 514.525Z" fill="white"/>
<path d="M529.397 519.582C524.124 517.102 518.867 514.622 513.594 512.159C500.942 506.221 488.306 500.266 475.654 494.328C460.357 487.133 445.042 479.939 429.745 472.744C416.52 466.529 403.278 460.297 390.053 454.081C385.706 452.042 381.359 449.986 377.013 447.947C375.008 447.001 372.885 445.679 370.762 445.01C370.661 444.978 370.577 444.929 370.493 444.88C369.735 444.521 369.061 445.63 369.819 445.989C375.092 448.469 380.349 450.949 385.622 453.412C398.274 459.35 410.91 465.305 423.562 471.243C438.859 478.438 454.174 485.632 469.471 492.827C482.696 499.042 495.938 505.274 509.163 511.49C513.51 513.529 517.857 515.585 522.203 517.624C524.208 518.57 526.331 519.892 528.454 520.561C528.555 520.593 528.639 520.642 528.723 520.691C529.481 521.034 530.155 519.941 529.397 519.582Z" fill="#391457"/>
<path d="M494.22 462.923C493.344 466.105 492.215 469.237 490.951 472.304C488.896 477.312 486.352 482.892 482.039 486.481C481.399 487.019 482.326 487.916 482.966 487.378C487.329 483.756 489.89 478.193 492.013 473.152C493.361 469.938 494.574 466.627 495.5 463.266C495.719 462.466 494.439 462.14 494.22 462.923Z" fill="#391457"/>
<path d="M470.28 506.319C469.842 509.435 469.016 512.534 468.005 515.52C466.287 520.593 463.692 526.222 458.84 529.158C458.116 529.599 458.79 530.708 459.514 530.268C463.389 527.918 465.883 523.97 467.652 520.006C469.218 516.515 470.33 512.812 471.105 509.076C471.274 508.276 471.425 507.461 471.543 506.645C471.661 505.862 470.381 505.503 470.28 506.319Z" fill="#391457"/>
<path d="M575.744 551.541C575.525 551.443 574.935 551.068 575.121 550.921C576.03 550.285 578.17 549.339 581.556 551.117C586.173 553.548 585.465 556.974 585.465 556.974C585.465 556.974 610.129 563.45 615.925 565.914C621.737 568.377 645.829 583.859 644.869 589.537C643.908 595.214 637.254 610.696 631.29 610.5C625.326 610.321 598.977 606.438 586.83 600.369C574.683 594.284 564.069 585.964 564.069 585.964C564.069 585.964 557.936 586.975 555.814 582.913C554.719 580.825 555.46 580.564 555.46 580.564C555.46 580.564 561.036 580.58 565.063 576.86C565.063 576.86 560.548 572.733 562.704 567.088C564.861 561.46 566.714 560.367 570.37 559.339C574.026 558.311 578.237 559.519 578.237 559.519C578.237 559.519 578.12 552.52 575.744 551.541Z" fill="#A66BE1"/>
<path d="M577.816 558.507C577.951 561.574 582.18 563.385 584.64 564.478C588.245 566.077 591.901 567.594 595.523 569.16C604.233 572.896 613.331 576.404 621.485 581.216C622.327 581.706 623.675 582.326 624.197 583.19C625.225 584.871 624.012 587.938 623.388 589.585C622.428 592.098 620.878 595.067 618.435 596.519C617.088 597.318 615.959 597.139 614.527 596.78C605.581 594.496 596.938 590.271 588.548 586.6C583.999 584.61 579.467 582.587 574.952 580.515C571.768 579.047 568.247 576.811 564.642 576.844C563.799 576.86 563.783 578.133 564.642 578.117C567.994 578.068 571.431 580.303 574.43 581.673C578.608 583.582 582.803 585.474 587.015 587.318C595.708 591.119 604.604 595.426 613.836 597.906C617.256 598.835 619.665 597.857 621.872 595.018C623.54 592.865 624.736 590.271 625.393 587.66C625.764 586.159 626.236 584.022 625.376 582.587C624.096 580.466 620.491 579.144 618.368 578.084C613.802 575.767 609.102 573.679 604.401 571.624C599.28 569.372 594.108 567.203 588.969 564.984C586.341 563.858 579.282 561.688 579.147 558.54C579.097 557.691 577.783 557.691 577.816 558.507Z" fill="#391457"/>
<path d="M622.613 577.758C622.613 577.758 617.239 584.871 614.021 592.816C610.803 600.76 610.349 600.581 608.95 600.092C607.552 599.586 610.012 593.599 612.202 589.112C614.392 584.626 618.486 577.774 619.968 576.909C621.451 576.061 623.506 576.273 622.613 577.758Z" fill="white"/>
<path d="M611.494 572.864C611.494 572.864 606.12 579.977 602.902 587.922C599.684 595.867 599.229 595.687 597.831 595.198C596.433 594.692 598.892 588.705 601.083 584.218C603.273 579.732 607.367 572.88 608.849 572.015C610.332 571.151 612.387 571.379 611.494 572.864Z" fill="white"/>
<path d="M597.747 566.974C597.747 566.974 592.372 574.087 589.155 582.032C585.937 589.977 585.482 589.798 584.083 589.308C582.685 588.819 585.145 582.815 587.335 578.329C589.525 573.842 593.619 566.991 595.102 566.126C596.584 565.261 598.623 565.473 597.747 566.974Z" fill="white"/>
<path d="M585.853 561.59C585.853 561.59 580.478 568.703 577.26 576.648C574.043 584.593 573.588 584.414 572.189 583.924C570.791 583.419 573.251 577.431 575.441 572.945C577.631 568.459 581.725 561.607 583.208 560.742C584.69 559.877 586.746 560.106 585.853 561.59Z" fill="white"/>
<path d="M613.499 518.783C613.499 518.783 630.599 519.696 637.81 522.274C645.021 524.851 654.657 531.622 665.709 540.285C674.773 547.397 674.048 552.406 669.887 559.91C665.709 567.415 662.879 573.875 656.729 573.696C650.58 573.516 623.911 569.487 613.179 564.446C602.43 559.405 589.054 545.048 589.054 545.048L613.499 518.783Z" fill="white"/>
<path d="M599.566 512.127C599.398 511.963 598.808 510.185 599.01 510.055C599.92 509.418 600.072 508.488 603.458 510.267C608.074 512.697 607.367 516.123 607.367 516.123C607.367 516.123 632.031 522.6 637.827 525.064C643.639 527.527 667.731 543.009 666.77 548.686C665.81 554.364 659.155 569.846 653.191 569.65C647.227 569.47 620.878 565.588 608.731 559.519C596.584 553.434 585.97 545.114 585.97 545.114C585.97 545.114 579.838 546.125 577.715 542.063C576.62 539.975 577.345 538.229 577.345 538.229C577.345 538.229 582.938 539.73 586.964 536.01C586.964 536.01 582.449 531.883 584.606 526.238C586.762 520.61 588.616 519.517 592.271 518.489C595.927 517.461 600.139 518.668 600.139 518.668C600.139 518.668 601.858 514.362 599.566 512.127Z" fill="#A66BE1"/>
<path d="M599.701 517.641C599.836 520.708 604.065 522.518 606.524 523.612C610.13 525.21 613.785 526.727 617.408 528.294C626.118 532.03 635.215 535.537 643.369 540.35C644.212 540.839 645.56 541.459 646.082 542.324C647.11 544.004 645.896 547.071 645.273 548.719C644.313 551.231 642.763 554.2 640.32 555.652C638.972 556.452 637.843 556.272 636.411 555.913C627.465 553.629 618.823 549.404 610.433 545.733C605.884 543.743 601.352 541.72 596.837 539.648C593.653 538.18 590.132 535.945 586.526 535.978C585.684 535.994 585.667 537.266 586.526 537.25C589.879 537.201 593.316 539.436 596.315 540.806C600.493 542.715 604.688 544.608 608.9 546.451C617.593 550.252 626.488 554.559 635.721 557.039C639.141 557.969 641.55 556.99 643.757 554.151C645.425 551.998 646.621 549.404 647.278 546.794C647.649 545.293 648.12 543.156 647.261 541.72C645.981 539.599 642.375 538.278 640.253 537.217C635.687 534.901 630.987 532.813 626.286 530.757C621.165 528.506 615.992 526.336 610.854 524.117C608.226 522.992 601.167 520.822 601.032 517.673C600.981 516.825 599.667 516.809 599.701 517.641Z" fill="#391457"/>
<path d="M644.498 536.891C644.498 536.891 639.124 544.004 635.906 551.949C632.688 559.894 632.233 559.714 630.835 559.225C629.437 558.719 631.896 552.732 634.086 548.246C636.277 543.759 640.371 536.907 641.853 536.043C643.336 535.194 645.391 535.406 644.498 536.891Z" fill="white"/>
<path d="M633.379 531.997C633.379 531.997 628.005 539.11 624.787 547.055C621.569 555 621.114 554.82 619.716 554.331C618.317 553.825 620.777 547.838 622.967 543.351C625.157 538.865 629.251 532.013 630.734 531.149C632.216 530.284 634.272 530.496 633.379 531.997Z" fill="white"/>
<path d="M619.615 526.108C619.615 526.108 614.24 533.22 611.022 541.165C607.805 549.11 607.35 548.931 605.951 548.442C604.553 547.936 607.013 541.949 609.203 537.462C611.393 532.976 615.487 526.124 616.97 525.259C618.469 524.395 620.507 524.607 619.615 526.108Z" fill="white"/>
<path d="M607.737 520.724C607.737 520.724 602.363 527.837 599.145 535.782C595.927 543.727 595.472 543.547 594.074 543.058C592.676 542.552 595.135 536.565 597.326 532.079C599.516 527.592 603.61 520.74 605.092 519.876C606.575 519.011 608.63 519.239 607.737 520.724Z" fill="white"/>
<path d="M216.777 374.681C216.087 374.762 215.396 374.925 214.739 375.137C213.543 375.529 212.313 376.133 211.504 377.111C210.948 377.78 210.645 378.547 210.578 379.395C210.561 379.738 210.898 380.032 211.235 380.032C211.605 380.032 211.875 379.738 211.892 379.395C211.892 379.363 211.925 379.134 211.892 379.281C211.909 379.2 211.925 379.134 211.942 379.053C211.976 378.906 212.027 378.759 212.077 378.612C212.128 378.465 212.043 378.661 212.111 378.514C212.144 378.449 212.178 378.384 212.212 378.335C212.279 378.204 212.363 378.09 212.465 377.96C212.38 378.074 212.498 377.911 212.532 377.894C212.582 377.846 212.633 377.797 212.667 377.748C212.768 377.65 212.869 377.552 212.97 377.47C213.02 377.421 213.071 377.389 213.138 377.34C213.021 377.421 213.189 377.307 213.223 377.291C213.341 377.209 213.475 377.128 213.593 377.046C213.846 376.899 214.099 376.769 214.351 376.655C214.419 376.622 214.469 376.606 214.537 376.573C214.402 376.622 214.57 376.557 214.604 376.54C214.722 376.491 214.84 376.443 214.975 376.41C215.396 376.263 215.834 376.149 216.272 376.051C216.424 376.018 216.575 375.986 216.727 375.969C216.862 375.953 216.996 375.937 216.744 375.969C217.098 375.92 217.401 375.708 217.401 375.333C217.435 375.007 217.131 374.632 216.777 374.681Z" fill="#391457"/>
<path d="M220.636 350.128C219.473 352.412 219.103 355.218 219.675 357.698C219.861 358.497 221.141 358.155 220.956 357.355C220.602 355.838 220.686 354.256 221.074 352.738C221.209 352.233 221.36 351.727 221.562 351.237C221.596 351.156 221.63 351.074 221.663 350.993C221.596 351.156 221.68 350.976 221.697 350.928C221.714 350.879 221.748 350.813 221.781 350.764C222.152 350.03 221.023 349.378 220.636 350.128Z" fill="#391457"/>
<path d="M238.359 354.402C238.123 354.892 237.82 355.348 237.483 355.789C237.466 355.821 237.365 355.952 237.432 355.854C237.399 355.903 237.348 355.952 237.314 356.001C237.23 356.099 237.129 356.213 237.045 356.311C236.843 356.523 236.624 356.735 236.405 356.931C235.916 357.355 235.444 357.681 234.838 357.991C234.147 358.334 233.322 358.546 232.513 358.579C231.67 358.628 231.654 359.9 232.513 359.851C235.377 359.688 237.752 357.942 239.184 355.593C239.302 355.414 239.403 355.218 239.505 355.022C239.656 354.712 239.606 354.337 239.269 354.141C238.982 354.027 238.494 354.092 238.359 354.402Z" fill="#391457"/>
<path d="M224.056 352.738C223.803 352.771 223.584 352.853 223.382 352.983C223.18 353.097 223.028 353.244 222.927 353.407C222.792 353.57 222.708 353.75 222.708 353.946C222.725 354.076 222.725 354.207 222.742 354.337C222.809 354.582 222.961 354.81 223.196 355.022C223.331 355.104 223.449 355.202 223.584 355.283C223.887 355.446 224.207 355.528 224.561 355.561L224.763 355.577C225.033 355.61 225.302 355.593 225.538 355.528C225.791 355.495 226.01 355.414 226.212 355.283C226.414 355.169 226.566 355.022 226.667 354.859C226.802 354.696 226.886 354.517 226.886 354.321C226.869 354.19 226.869 354.06 226.852 353.929C226.785 353.685 226.633 353.456 226.397 353.244C226.263 353.163 226.145 353.065 226.01 352.983C225.707 352.82 225.387 352.738 225.033 352.706L224.831 352.689C224.561 352.657 224.308 352.673 224.056 352.738Z" fill="#391457"/>
<path d="M473.211 343.537C476.311 357.42 479.411 371.303 482.511 385.187C482.949 387.161 483.404 389.151 483.842 391.125C484.027 391.924 485.291 391.582 485.122 390.782C482.022 376.899 478.922 363.016 475.822 349.133C475.384 347.159 474.93 345.168 474.492 343.194C474.306 342.395 473.043 342.738 473.211 343.537Z" fill="#391457"/>
<path d="M536.119 297.727C516.644 302.083 497.134 306.357 477.524 310.11C472.79 311.007 468.022 312.002 463.238 312.508C462.395 312.589 462.395 313.878 463.238 313.78C473.329 312.72 483.353 310.305 493.26 308.266C505.103 305.819 516.93 303.274 528.757 300.68C531.335 300.109 533.912 299.538 536.49 298.967C537.299 298.771 536.945 297.531 536.119 297.727Z" fill="#391457"/>
<path d="M496.898 256.208C496.898 256.208 463.423 314.596 454.106 321.073C444.773 327.549 420.192 323.096 419.35 311.676C418.508 300.256 460.896 240.351 460.896 240.351L496.898 256.208Z" fill="#A66BE1"/>
<path d="M473.464 210.48C473.464 210.48 482.831 200.463 493.58 203.057C504.345 205.667 510.595 210.284 513.055 218.262C515.498 226.239 509.281 253.027 507.142 261.184C505.002 269.341 503.974 275.1 503.065 275.214C502.138 275.312 493.765 272.718 486.436 270.565C479.125 268.411 463.777 263.68 458.503 261.151C453.23 258.623 446.356 255.425 446.272 254.185C446.188 252.945 452.169 240.237 455.083 236.044C457.998 231.835 468.443 215.945 473.464 210.48Z" fill="#6E369E"/>
<path d="M458.419 316.586C458.419 316.586 455.168 322.361 433.064 340.209C410.977 358.073 387.408 372.299 385.285 371.222C383.145 370.145 369.398 345.625 370.51 343.553C371.116 342.444 381.915 333.602 394.147 324.107C404.609 315.983 415.256 306.765 418.205 304.253C424.623 298.788 430.402 292.083 430.402 292.083L458.419 316.586Z" fill="#A66BE1"/>
<path d="M435.423 229.192C431.632 235.555 428.397 242.537 426.493 249.65C425.28 254.153 424.623 258.916 426.46 263.337C427.858 266.698 430.436 269.961 433.67 271.87C434.395 272.294 435.069 271.201 434.344 270.76C430.958 268.754 428.313 265.132 427.184 261.494C425.836 257.122 426.999 252.293 428.33 248.051C430.284 241.738 433.165 235.555 436.568 229.828C436.989 229.127 435.844 228.474 435.423 229.192Z" fill="#391457"/>
<path d="M512.533 231.802C511.168 238.23 509.803 244.658 508.405 251.086C506.67 259.128 505.053 267.22 502.424 275.051C502.694 274.904 502.963 274.757 503.233 274.61C495.989 273.191 489.048 270.646 482.073 268.313C473.582 265.475 464.956 262.783 456.684 259.34C452.944 257.774 448.782 256.208 445.447 253.859C445.531 254.153 445.598 254.446 445.682 254.74C447.266 251.657 448.85 248.573 450.45 245.49C450.821 244.756 449.692 244.103 449.305 244.837C447.721 247.921 446.137 251.004 444.537 254.087C444.368 254.414 444.469 254.74 444.773 254.968C447.418 256.844 450.652 258.133 453.618 259.422C457.375 261.07 461.233 262.489 465.107 263.876C473.801 266.959 482.561 269.863 491.339 272.734C495.129 273.974 498.92 275.067 502.846 275.85C503.216 275.916 503.536 275.752 503.654 275.41C506.282 267.579 507.9 259.504 509.635 251.444C511.016 245.017 512.398 238.589 513.763 232.161C513.982 231.346 512.701 231.003 512.533 231.802Z" fill="#391457"/>
<path d="M282.01 283.469C282.01 283.469 279.45 285.361 278.607 288.118C277.765 290.875 282.381 295.574 284.453 297.45C286.526 299.326 289.76 300.24 291.512 298.396C293.281 296.553 292.607 294.089 290.788 291.349C288.968 288.608 284.622 283.028 283.409 282.882C282.213 282.735 282.01 283.469 282.01 283.469Z" fill="#A66BE1"/>
<path d="M279.871 290.321C279.871 290.321 276.838 291.561 275.743 294.399C274.665 297.238 280.545 304.644 283.594 305.754C286.643 306.863 289.255 304.742 289.339 302.654C289.423 300.582 286.997 297.107 285.414 295.394C283.864 293.681 279.871 290.321 279.871 290.321Z" fill="#A66BE1"/>
<path d="M276.417 297.662C276.417 297.662 273.62 298.413 273.25 301.724C272.879 305.036 276.333 309.588 279.062 311.823C281.791 314.074 285.296 312.655 285.565 310.518C285.835 308.381 284.588 305.836 282.752 303.388C280.898 300.941 277.175 297.091 276.417 297.662Z" fill="#A66BE1"/>
<path d="M273.536 303.666C273.536 303.666 271.194 304.775 270.706 307.809C270.234 310.844 273.856 315.542 276.181 317.011C278.506 318.462 280.983 317.418 281.303 315.966C281.623 314.531 281.033 311.757 279.483 310.126C277.95 308.511 273.536 303.666 273.536 303.666Z" fill="#A66BE1"/>
<path d="M288.396 298.853C286.66 297.776 285.043 296.406 283.645 294.921C282.348 293.551 281.084 292.083 280.006 290.549C279.534 289.88 278.388 290.517 278.86 291.202C279.585 292.23 280.393 293.192 281.202 294.138C282.752 295.965 284.437 297.597 286.374 299.032C286.812 299.359 287.25 299.669 287.705 299.962C288.446 300.403 289.12 299.293 288.396 298.853Z" fill="#391457"/>
<path d="M275.844 297.988C276.198 298.723 276.636 299.408 277.091 300.077C278.136 301.61 279.366 303.029 280.814 304.22C281.792 305.02 282.853 305.721 283.999 306.276C284.757 306.635 285.431 305.526 284.672 305.167C281.505 303.682 279.062 301.007 277.378 298.054C277.243 297.825 277.108 297.581 276.99 297.336C276.838 297.026 276.367 296.944 276.08 297.107C275.76 297.303 275.693 297.662 275.844 297.988Z" fill="#391457"/>
<path d="M272.896 303.845C273.974 306.439 275.642 308.935 277.647 310.942C278.54 311.823 279.534 312.622 280.629 313.258C281.353 313.682 282.027 312.573 281.303 312.149C279.079 310.86 277.361 308.886 275.996 306.782C275.491 306.015 275.036 305.215 274.615 304.4C274.48 304.155 274.362 303.894 274.244 303.649C274.21 303.584 274.176 303.502 274.143 303.437C274.244 303.666 274.193 303.551 274.176 303.502C274.042 303.176 273.738 302.964 273.368 303.062C273.048 303.144 272.761 303.519 272.896 303.845Z" fill="#391457"/>
<path d="M377.35 341.514C377.35 341.514 368.117 341.971 364.478 340.878C360.839 339.801 352.416 335.021 347.968 336.082C343.52 337.142 344.278 341.367 346.3 342.966C348.305 344.565 355.634 347.844 355.634 347.844C355.634 347.844 339.881 347.289 334.17 348.546C328.442 349.802 325.965 351.335 327.111 353.946C328.257 356.556 332.266 356.67 334.524 356.376C336.781 356.083 348.457 356.066 348.457 356.066C348.457 356.066 337.893 356.915 333.934 357.926C329.975 358.938 326.286 360.487 327.212 363.669C328.139 366.866 333.075 366.426 335.113 366.051C337.152 365.675 342.223 365.512 345.761 365.006C349.282 364.501 351.893 364.55 351.893 364.55C351.893 364.55 343.487 366.605 339.376 368.008C335.265 369.411 334.136 370.635 335.282 373.147C336.697 376.296 340.875 375.366 343.84 374.436C346.806 373.522 356.56 371.712 356.56 371.712C356.56 371.712 348.827 375.121 345.795 376.231C342.745 377.34 341.482 381.304 345.98 382.022C350.478 382.74 353.528 380.978 358.835 379.559C364.141 378.156 373.947 376.149 380.601 373.686C387.256 371.222 394.652 366.817 394.652 366.817L377.35 341.514Z" fill="#A66BE1"/>
<path d="M1094.91 520.139C1094.91 520.139 1114.73 520.509 1118.96 539.583C1123.19 558.656 1112.34 577.408 1097.05 578.568C1081.76 579.727 1071.75 569.241 1071.01 552.536C1070.24 535.832 1078.53 522.631 1094.91 520.139Z" fill="#FFA154"/>
<path d="M1099.14 520.608C1099.14 520.608 1080.59 518.412 1076.33 519.152C1072.08 519.868 1061.56 527.64 1059.8 543.654C1058.04 559.667 1065.81 571.314 1068.31 572.523C1070.8 573.732 1089.86 578.593 1091.37 578.346C1092.87 578.099 1099.14 520.608 1099.14 520.608Z" fill="#FFA154"/>
<path d="M1092.49 577.383C1089.58 577.211 1086.63 575.557 1084.51 573.756C1078.6 568.673 1076.67 560.235 1076.59 552.882C1076.49 545.652 1078.09 537.658 1082.35 531.588C1086.7 525.395 1094.2 521.965 1101.89 522.607C1103.17 522.705 1103.17 520.781 1101.89 520.682C1093.97 520.016 1086.25 523.446 1081.4 529.565C1076.33 536.005 1074.47 544.962 1074.58 552.882C1074.7 563.097 1079.57 578.617 1092.46 579.333C1093.76 579.382 1093.76 577.457 1092.49 577.383Z" fill="#391457"/>
<path d="M1166.03 549.921C1166.03 549.921 1102.89 539.484 1100.13 539.977C1097.38 540.471 1092.87 547.256 1093.86 553.079C1094.86 558.902 1097.64 560.605 1097.64 560.605L1163.02 571.758L1166.03 549.921Z" fill="#FFA154"/>
<path d="M1178.33 535.635C1178.33 535.635 1198.16 536.005 1202.39 555.078C1206.62 574.151 1195.76 592.904 1180.47 594.063C1165.19 595.223 1155.17 584.736 1154.43 568.032C1153.67 551.303 1161.95 538.102 1178.33 535.635Z" fill="#FFA154"/>
<path d="M1182.56 536.079C1182.56 536.079 1164.01 533.883 1159.76 534.623C1155.5 535.363 1144.98 543.111 1143.22 559.125C1141.46 575.138 1149.23 586.784 1151.73 587.993C1154.23 589.202 1173.29 594.063 1174.79 593.816C1176.29 593.594 1182.56 536.079 1182.56 536.079Z" fill="#FFA154"/>
<path d="M1175.91 592.854C1173.01 592.681 1170.05 591.028 1167.94 589.227C1161.77 583.922 1159.94 575.064 1160.01 567.415C1160.09 560.186 1161.82 551.969 1166.48 546.121C1170.69 540.841 1178.03 537.559 1184.93 538.078C1186.21 538.176 1186.21 536.227 1184.93 536.153C1179.51 535.758 1173.77 537.633 1169.44 540.718C1164.42 544.295 1161.52 549.576 1159.83 555.3C1156.39 566.897 1156.93 583.725 1167.86 591.645C1170.13 593.298 1173.03 594.655 1175.94 594.803C1177.21 594.877 1177.21 592.928 1175.91 592.854Z" fill="#391457"/>
<path d="M1119.7 541.458C1115.6 540.866 1111.5 540.274 1107.42 539.706C1105.15 539.385 1102.86 539.064 1100.59 538.719C1099.42 538.546 1098.73 538.546 1097.69 539.139C1091.47 542.692 1089.71 550.044 1091.98 556.46C1092.62 558.31 1093.81 560.778 1095.98 561.296C1097.81 561.715 1099.73 561.913 1101.59 562.209C1106.53 563.023 1111.47 563.837 1116.44 564.676C1117.69 564.874 1118.25 563.023 1116.98 562.801C1111.7 561.937 1106.43 561.049 1101.15 560.186C1099.93 559.988 1098.71 559.791 1097.48 559.569C1096.74 559.445 1096.23 559.421 1095.67 558.927C1094.43 557.767 1093.81 555.917 1093.46 554.313C1092.9 551.846 1092.85 549.008 1093.69 546.59C1094.63 543.901 1096.95 541.433 1099.67 540.298C1099.42 540.323 1099.16 540.372 1098.91 540.397C1105.66 541.359 1112.44 542.346 1119.22 543.308C1120.42 543.506 1120.95 541.631 1119.7 541.458Z" fill="#391457"/>
<path d="M1146.3 545.924C1145.11 547.774 1144.32 549.97 1143.68 552.043C1142.02 557.373 1141.62 563.023 1142.13 568.55C1142.23 569.784 1144.24 569.784 1144.11 568.55C1143.6 563.171 1143.99 557.743 1145.59 552.561C1146.18 550.637 1146.92 548.613 1148.01 546.886C1148.7 545.825 1146.99 544.863 1146.3 545.924Z" fill="#391457"/>
<path d="M1123.6 587.895C1123.6 587.895 1143.42 588.265 1147.65 607.338C1151.88 626.411 1141.03 645.163 1125.74 646.323C1110.48 647.458 1100.44 636.996 1099.7 620.292C1098.94 603.563 1107.19 590.362 1123.6 587.895Z" fill="#FFA154"/>
<path d="M1127.81 588.339C1127.81 588.339 1109.26 586.143 1105 586.883C1100.74 587.623 1090.22 595.371 1088.46 611.384C1086.7 627.398 1094.48 639.044 1096.97 640.253C1099.47 641.462 1118.53 646.323 1120.03 646.076C1121.54 645.83 1127.81 588.339 1127.81 588.339Z" fill="#FFA154"/>
<path d="M1121.18 645.114C1118.28 644.941 1115.32 643.288 1113.2 641.487C1107.29 636.404 1105.36 627.966 1105.28 620.613C1105.18 613.383 1106.78 605.389 1111.04 599.319C1115.4 593.126 1122.89 589.696 1130.58 590.338C1131.86 590.436 1131.86 588.512 1130.58 588.413C1122.66 587.747 1114.94 591.176 1110.1 597.296C1105.03 603.736 1103.17 612.692 1103.27 620.613C1103.39 630.828 1108.26 646.348 1121.18 647.063C1122.45 647.137 1122.45 645.188 1121.18 645.114Z" fill="#391457"/>
<path d="M1194.72 617.652C1194.72 617.652 1131.58 607.215 1128.82 607.708C1126.07 608.202 1121.56 614.987 1122.56 620.81C1123.55 626.633 1126.3 628.336 1126.3 628.336L1191.69 639.488L1194.72 617.652Z" fill="#FFA154"/>
<path d="M1207.02 603.365C1207.02 603.365 1226.85 603.735 1231.08 622.809C1235.31 641.882 1224.45 660.634 1209.17 661.794C1193.88 662.953 1183.86 652.467 1183.12 635.763C1182.36 619.033 1190.64 605.833 1207.02 603.365Z" fill="#FFA154"/>
<path d="M1211.25 603.834C1211.25 603.834 1192.7 601.638 1188.45 602.378C1184.19 603.094 1173.67 610.866 1171.91 626.88C1170.15 642.893 1177.93 654.54 1180.42 655.749C1182.92 656.958 1201.98 661.818 1203.48 661.572C1204.99 661.325 1211.25 603.834 1211.25 603.834Z" fill="#FFA154"/>
<path d="M1204.6 660.61C1201.7 660.437 1198.74 658.784 1196.63 656.983C1190.46 651.678 1188.63 642.82 1188.7 635.171C1188.78 627.941 1190.51 619.725 1195.18 613.877C1199.38 608.597 1206.72 605.315 1213.62 605.833C1214.9 605.932 1214.9 603.982 1213.62 603.908C1208.2 603.514 1202.46 605.389 1198.13 608.473C1193.11 612.051 1190.21 617.331 1188.53 623.056C1185.09 634.652 1185.62 651.48 1196.55 659.401C1198.82 661.054 1201.72 662.411 1204.63 662.559C1205.88 662.608 1205.88 660.684 1204.6 660.61Z" fill="#391457"/>
<path d="M1148.37 609.188C1144.27 608.596 1140.16 608.004 1136.09 607.437C1133.82 607.116 1131.53 606.795 1129.26 606.45C1128.09 606.277 1127.4 606.277 1126.35 606.869C1120.14 610.422 1118.38 617.775 1120.64 624.19C1121.28 626.041 1122.48 628.508 1124.65 629.026C1126.48 629.446 1128.39 629.643 1130.25 629.939C1135.19 630.754 1140.14 631.568 1145.11 632.407C1146.36 632.604 1146.92 630.754 1145.64 630.532C1140.37 629.668 1135.09 628.78 1129.82 627.916C1128.59 627.719 1127.37 627.521 1126.15 627.299C1125.41 627.176 1124.9 627.151 1124.34 626.658C1123.09 625.498 1122.48 623.648 1122.12 622.044C1121.56 619.576 1121.51 616.739 1122.35 614.321C1123.29 611.631 1125.61 609.164 1128.34 608.029C1128.09 608.053 1127.83 608.103 1127.58 608.127C1134.33 609.09 1141.11 610.077 1147.86 611.039C1149.11 611.236 1149.64 609.386 1148.37 609.188Z" fill="#391457"/>
<path d="M1175 613.655C1173.8 615.505 1173.01 617.701 1172.37 619.774C1170.71 625.103 1170.31 630.754 1170.82 636.281C1170.92 637.514 1172.93 637.514 1172.8 636.281C1172.29 630.902 1172.68 625.474 1174.28 620.292C1174.87 618.367 1175.61 616.344 1176.7 614.617C1177.39 613.581 1175.66 612.594 1175 613.655Z" fill="#391457"/>
</g>
<defs>
<clipPath id="clip0_71_2387">
<rect width="1232" height="671" fill="white"/>
</clipPath>
</defs>
</svg>
