<svg width="433" height="289" viewBox="0 0 433 289" fill="none" xmlns="http://www.w3.org/2000/svg">
<path d="M412.659 237.033C412.659 237.033 433.509 285.41 432.063 286.945C430.626 288.479 0.865479 288.479 0.865479 288.479C0.865479 288.479 22.4586 240.103 25.3422 239.34C28.2259 238.568 412.659 237.033 412.659 237.033Z" fill="#A66BE1"/>
<path d="M72.2528 224.736C72.2528 224.736 60.4054 222.644 54.8336 225.547C49.2618 228.45 0.826458 239.164 4.52143 250.728C6.57419 257.14 29.0861 256.769 42.3118 257.14C55.5276 257.521 83.7189 256.309 83.7189 256.309L72.2528 224.736Z" fill="#FFA154"/>
<path d="M71.1481 225.693C63.0739 228.567 54.9215 231.255 46.73 233.787C35.4203 237.287 23.6804 240.121 12.9865 245.312C10.1029 246.71 7.38542 248.587 6.27106 251.783C6.11466 252.233 6.81846 252.418 6.97486 251.979C7.98169 249.105 10.4548 247.384 13.0256 246.104C17.5124 243.885 22.2924 242.213 27.0333 240.61C33.26 238.508 39.5942 236.749 45.8796 234.814C51.4904 233.093 57.072 231.275 62.634 229.398C65.547 228.421 68.4502 227.424 71.3436 226.397C71.7835 226.241 71.5977 225.537 71.1481 225.693Z" fill="#391457"/>
<path d="M55.5959 257.55C55.1267 253.416 54.6477 249.29 54.1785 245.156C54.1101 244.559 54.0417 243.963 53.9733 243.367C53.9244 242.907 53.1913 242.898 53.2401 243.367C53.7093 247.502 54.1883 251.627 54.6575 255.762C54.7259 256.358 54.7944 256.954 54.8628 257.55C54.9214 258.01 55.6546 258.02 55.5959 257.55Z" fill="#391457"/>
<path d="M45.8797 257.951C45.8797 253.924 45.8797 249.906 45.8797 245.879C45.8797 245.312 45.8797 244.745 45.8797 244.168C45.8797 243.699 45.1466 243.699 45.1466 244.168C45.1466 248.186 45.1466 252.213 45.1466 256.241C45.1466 256.807 45.1466 257.374 45.1466 257.951C45.1466 258.42 45.8797 258.42 45.8797 257.951Z" fill="#391457"/>
<path d="M70.2195 247.864C65.0094 248.069 59.8091 248.323 54.599 248.616C50.728 248.831 46.8473 249.066 42.9764 249.379C40.5131 249.574 37.9227 249.672 35.5083 250.249C32.263 251.031 30.22 254.296 29.7508 257.453C29.6823 257.912 30.3862 258.118 30.4546 257.648C30.8847 254.726 32.7126 251.656 35.7429 250.953C38.1573 250.386 40.7379 250.298 43.2012 250.102C50.3761 249.525 57.5803 249.174 64.7748 248.841C66.5832 248.753 68.4013 248.675 70.2195 248.607C70.6887 248.577 70.6985 247.844 70.2195 247.864Z" fill="#391457"/>
<path d="M327.108 141.579C327.108 141.579 332.074 144.639 330.021 147.18C327.968 149.732 324.664 149.487 322.729 147.689C320.783 145.89 318.134 142.381 318.134 142.381L327.108 141.579Z" fill="#FFA154"/>
<path d="M68.6946 214.56C68.6946 214.56 69.1247 259.652 71.676 261.353C74.2273 263.054 141.871 260.503 141.871 260.503L129.535 212.009L68.6946 214.56Z" fill="#6E369E"/>
<path d="M236.767 56.4385C236.767 56.4385 253.072 75.1381 258.8 81.0032C264.538 86.878 276.004 98.6178 276.004 98.6178L251.078 116.692L215.839 76.7412L236.767 56.4385Z" fill="#FFA154"/>
<path d="M211.029 35.8721C211.029 35.8721 221.997 37.094 226.865 43.1838C231.733 49.2737 251.429 63.6919 251.429 66.7319C251.429 69.772 245.74 73.0271 235.388 79.1169C225.037 85.2068 215.291 84.6007 215.291 84.6007L211.029 35.8721Z" fill="#6E369E"/>
<path d="M233.551 144.15C233.551 144.15 257.158 186.271 265.457 214.98C273.756 243.7 265.457 255.185 253.336 257.737C241.214 260.288 199.729 260.923 199.729 260.923L198.449 145.421L233.551 144.15Z" fill="#6E369E"/>
<path d="M217.119 51.1009C217.119 51.1009 223.815 66.3304 223.815 74.2482C223.815 82.166 220.765 85.8219 220.765 85.8219C220.765 85.8219 226.855 121.755 225.027 121.755C223.199 121.755 195.184 122.361 176.914 121.149C158.645 119.927 151.333 119.321 151.333 119.321C151.333 119.321 156.201 76.0761 156.817 73.6421C157.423 71.2082 193.542 34.6006 193.542 34.6006C193.542 34.6006 206.151 48.0608 209.807 52.3228C213.463 56.5847 213.463 56.5847 213.463 56.5847L211.029 40.1431C211.029 40.1333 214.685 47.445 217.119 51.1009Z" fill="#6E369E"/>
<path d="M73.5918 143.134C73.5918 143.134 68.6261 146.193 70.6788 148.735C72.7316 151.286 76.0356 151.042 77.971 149.243C79.9065 147.445 82.5653 143.935 82.5653 143.935L73.5918 143.134Z" fill="#FFA154"/>
<path d="M168.615 75.9786C168.439 73.9161 142.643 60.6416 142.643 60.6416C142.643 60.6416 108.029 95.9686 107.981 97.2589C107.981 97.2589 93.8849 116.271 90.6298 126.017C87.3845 135.763 87.3845 137.386 87.3845 137.386C87.3845 137.386 115.81 143.475 117.433 142.664C118.782 141.99 133.943 118.51 137.403 110.103C148.674 98.9891 168.742 77.5133 168.615 75.9786Z" fill="#FFA154"/>
<path d="M218.243 30.4572L208.419 43.4971L193.542 34.6018L203.131 21.21L218.243 30.4572Z" fill="#FFA154"/>
<path d="M225.799 14.3571C226.405 14.2691 234 9.93876 228.556 4.7482C223.121 -0.442349 212.407 -0.794246 199.191 1.45402C185.976 3.70228 183.024 7.49499 181.43 13.7119C180.13 18.7852 183.092 30.134 187.979 34.3764C192.877 38.6188 204.069 23.575 205.017 23.0373C205.975 22.4997 225.799 14.3571 225.799 14.3571Z" fill="#391457"/>
<path d="M229.484 232.244C229.093 234.023 228.644 235.763 228.155 237.434C226.962 241.461 225.516 245.137 223.864 248.323C220.638 254.521 215.164 259.936 208.233 264.325C207.217 264.97 206.161 265.596 205.096 266.192C196.464 271.002 185.966 274.364 174.891 275.928C173.669 276.094 172.427 276.241 171.186 276.378C164.08 277.111 156.797 277.082 149.661 276.221C140.844 275.156 132.174 273.035 124.227 269.672C123.122 269.213 122.047 268.724 120.972 268.206C102.917 259.584 89.144 244.101 86.8371 219.477C86.5341 216.242 86.3777 213.124 86.3777 210.142C86.3679 208.598 86.407 207.083 86.4852 205.606C87.1793 191.276 91.3532 180.025 97.8341 171.218C98.5476 170.24 99.2905 169.292 100.063 168.373C105.918 161.423 113.298 156.135 121.49 152.127C143.474 141.365 180.932 144.454 180.932 144.454C180.932 144.454 191.156 143.848 203.336 151.736C204.284 152.352 205.242 153.007 206.21 153.73C210.355 156.829 214.665 160.944 218.81 166.428C221.528 170.016 223.766 173.984 225.574 178.187C225.936 179.028 226.288 179.879 226.611 180.749C228.468 185.597 229.787 190.729 230.628 195.959C230.892 197.601 231.117 199.253 231.293 200.905C232.397 211.726 231.635 222.693 229.484 232.244Z" fill="#FFA154"/>
<path d="M338.378 143.114C342.582 173.025 342.582 173.025 346.824 203.025C350.783 231.001 352.103 253.963 356.589 258.449C361.076 262.936 368.202 262.672 368.202 262.672L358.965 142.85L338.378 143.114Z" fill="#FFEDD6"/>
<path d="M52.683 105.137C52.683 105.137 49.379 100.514 44.5013 100.514C39.6235 100.514 38.6949 104.737 38.04 108.832C37.3753 112.918 37.5121 120.582 37.5121 120.582L50.7084 121.51L52.683 105.137Z" fill="#FFEDD6"/>
<path d="M71.8226 109.761C71.8226 109.761 62.8491 105.274 58.4894 104.883C54.1297 104.492 51.6273 105.02 51.6273 105.02L48.3234 118.608L70.6203 120.191L71.8226 109.761Z" fill="#6E369E"/>
<path d="M51.5492 111.951C51.5492 111.951 44.9901 105.617 40.6891 106.067C36.3881 106.516 35.9384 109.684 35.7136 119.644C35.4888 129.605 35.0391 137.298 31.8622 147.474C28.6951 157.66 27.3364 170.103 28.6951 178.021C30.0538 185.939 30.9531 188.207 35.479 187.073C40.0048 185.939 39.5552 182.322 39.5552 182.322L51.5492 111.951Z" fill="#FFEDD6"/>
<path d="M70.1021 115.578C70.1021 115.578 61.9595 111.502 56.2997 111.053C50.6399 110.603 49.5158 110.828 49.5158 110.828C49.5158 110.828 42.4973 137.074 39.555 149.527C36.6127 161.971 34.3547 180.524 35.254 182.117C36.1631 183.701 38.646 185.059 42.7222 181.667C46.7983 178.276 51.7738 168.54 57.6584 157.68C63.543 146.819 65.801 143.877 65.801 143.877H69.4178L70.1021 115.578Z" fill="#6E369E"/>
<path d="M65.0582 135.93C62.722 139.957 60.4151 144.004 58.1375 148.061C55.0193 153.603 51.6762 159.155 49.1151 164.991C48.167 167.161 47.8933 170.328 50.3761 171.618C50.7964 171.834 51.1679 171.208 50.7476 170.983C48.3722 169.751 49.1054 166.77 49.9949 164.825C51.1092 162.41 52.38 160.064 53.641 157.718C56.7788 151.892 60.0436 146.135 63.3281 140.397C64.1101 139.028 64.9018 137.66 65.6936 136.291C65.9282 135.891 65.2929 135.519 65.0582 135.93Z" fill="#391457"/>
<path d="M65.1658 145.371C65.1658 145.371 56.9352 138.372 55.0779 140.23C53.2304 142.077 55.899 143.524 55.899 143.524L63.5138 148.255C63.5236 148.255 66.6027 147.229 65.1658 145.371Z" fill="#A66BE1"/>
<path d="M60.4347 152.781C60.4347 152.781 54.0516 147.435 52.2041 148.256C50.3566 149.077 50.9724 150.318 51.5882 151.139C52.2041 151.96 58.9977 155.87 58.9977 155.87C58.9977 155.87 61.2558 154.228 60.4347 152.781Z" fill="#A66BE1"/>
<path d="M55.9088 161.012C55.9088 161.012 50.9724 156.076 48.4993 156.486C46.0262 156.897 46.4368 159.37 47.8835 160.396C49.3204 161.423 54.2666 164.922 54.2666 164.922C54.2666 164.922 56.9352 161.833 55.9088 161.012Z" fill="#A66BE1"/>
<path d="M378.769 248.039C378.769 248.039 383.803 250.337 392.992 251.128C402.18 251.92 410.401 252.096 412.434 254.579C414.467 257.062 414.028 257.756 414.028 257.756C414.028 257.756 415.083 261.118 414.38 262.174C413.676 263.23 413.05 263.328 413.05 263.328C413.05 263.328 412.874 265.361 410.313 265.713C407.752 266.065 405.015 265.537 405.015 265.537C405.015 265.537 404.839 267.13 402.894 267.922C400.949 268.714 392.464 268.45 382.659 268.01C372.855 267.57 367.811 268.362 363.569 266.329C359.326 264.295 358.799 259.789 357.909 256.788C357.029 253.787 357.029 248.567 357.029 248.567L378.945 247.688" fill="#FFEDD6"/>
<path d="M375.592 104.805C375.592 104.805 370.577 121.433 369.258 123.544C367.938 125.656 365.563 98.999 365.563 98.999L375.592 104.805Z" fill="#FFEDD6"/>
<path d="M256.982 91.5508C256.982 91.5508 248.116 93.3592 241.723 95.9593C239.035 97.0541 234.186 101.14 234.186 101.14C234.186 101.14 224.841 100.69 222.094 100.661C202.867 100.466 190.169 100.202 169.954 100.593C149.74 100.984 125.321 99.0189 104.696 98.6182C84.0609 98.2272 73.1129 102.567 71.4316 104.141C69.7502 105.715 70.5909 120.309 70.5909 120.309L247.852 123.466L256.982 91.5508Z" fill="#ED5820"/>
<path d="M313.569 99.4199L300.373 100.573L303.276 144.59C303.276 144.59 306.179 146.604 320.168 143.73L313.569 99.4199Z" fill="#FFEDD6"/>
<path d="M383.754 99.8404L373.187 107.709L362.132 92.47L373.187 88.1689L380.812 88.4231L383.754 99.8404Z" fill="#FFEDD6"/>
<path d="M364.507 90.5041C364.507 90.5041 369.258 93.378 371.369 102.586C373.481 111.794 369.786 134.521 369.786 134.521C369.786 134.521 364.243 146.896 352.894 147.757C341.546 148.617 339.434 143.436 339.434 143.436L315.681 145.166C315.681 145.166 315.153 139.985 314.361 127.62C313.569 115.245 312.514 98.5587 312.514 98.5587C312.514 98.5587 330.461 96.5451 340.49 93.6712C350.519 90.7876 362.66 89.9274 364.507 90.5041Z" fill="#ED5820"/>
<path d="M397.635 81.5506C397.635 81.5506 400.978 78.0414 396.462 73.3591C391.956 68.6769 379.59 70.5146 379.59 70.5146C379.59 70.5146 366.579 72.2936 364.243 81.6581C361.907 91.0129 374.077 91.2377 374.077 91.2377L397.635 81.5506Z" fill="#391457"/>
<path d="M396.863 80.1826C396.863 80.1826 397.596 82.2256 398.251 84.8551C398.759 86.8883 398.984 87.4748 398.984 87.4748C398.984 87.4748 401.486 89.6058 401.359 91.0818C401.232 92.5578 399.15 92.9684 399.15 92.9684C399.15 92.9684 400.215 100.055 399.228 102.137C398.241 104.229 395.787 105.578 390.87 105.089C385.954 104.601 379.571 100.173 379.571 100.173L377.117 93.1248C377.117 93.1248 371.868 93.0759 371.223 90.1727C370.734 87.9636 371.223 85.1386 374.048 84.7671C377.655 84.2979 379.453 85.9988 379.453 85.9988L380.802 86.9372C380.802 86.9372 384.732 85.7055 389.893 83.7407C395.064 81.7857 396.863 80.1826 396.863 80.1826Z" fill="#FFEDD6"/>
<path d="M377.029 92.7726C377 92.7824 376.97 92.7824 376.931 92.7922C376.824 92.8117 377 92.7824 376.902 92.7922C376.853 92.8019 376.804 92.8019 376.746 92.8117C376.443 92.841 376.14 92.841 375.837 92.8215C374.947 92.7628 374.067 92.4696 373.344 91.9417C372.787 91.5409 372.357 90.9935 372.024 90.3973C371.79 89.9867 371.164 90.3582 371.389 90.7687C372.015 91.8831 372.963 92.7433 374.165 93.2027C374.947 93.496 375.817 93.6035 376.648 93.5448C376.834 93.5351 377.029 93.5155 377.215 93.4764C377.684 93.3884 377.489 92.6846 377.029 92.7726Z" fill="#391457"/>
<path d="M378.671 89.1757C377.938 88.0418 376.892 87.0154 375.739 86.3214C375.23 86.0183 374.683 85.7837 374.106 85.6469C373.647 85.5394 373.451 86.2432 373.911 86.3507C375.074 86.6244 376.061 87.338 376.892 88.1688C377.068 88.3448 377.234 88.5207 377.391 88.7065C377.459 88.7847 377.527 88.8629 377.596 88.9509C377.625 88.99 377.654 89.0291 377.684 89.0584C377.694 89.0682 377.782 89.1757 377.723 89.117C377.83 89.2539 377.938 89.4005 378.026 89.5471C378.29 89.9381 378.925 89.5765 378.671 89.1757Z" fill="#391457"/>
<path d="M396.52 82.3715C396.002 82.5084 395.484 82.6843 394.986 82.8798C393.94 83.2904 392.913 83.7889 392.004 84.4536C391.848 84.5709 391.77 84.7762 391.877 84.9522C391.965 85.1086 392.219 85.1965 392.376 85.0792C393.647 84.1408 395.181 83.4663 396.716 83.0656C397.166 82.958 396.98 82.2542 396.52 82.3715Z" fill="#391457"/>
<path d="M395.23 84.8447C393.93 84.8447 393.92 87.8945 395.23 87.8945C396.53 87.8848 396.53 84.8447 395.23 84.8447Z" fill="#391457"/>
<path d="M385.318 70.622C385.318 70.622 392.288 68.6768 392.933 62.0395C393.578 55.3925 388.886 46.3212 379.483 48.4327C370.089 50.5343 366.198 60.7492 369.111 66.2526C372.024 71.7657 379.483 71.9221 379.483 71.9221L385.318 70.622Z" fill="#391457"/>
<path d="M342.865 151.628C342.025 140.181 335.475 106.057 344.449 98.2758C351.829 91.883 361.34 93.9846 365.827 100.954C370.314 107.924 370.577 135.802 372.161 150.015C373.745 164.228 381.662 247.863 382.19 249.476L356.853 250.278C356.853 250.278 348.144 198.001 346.824 183.798C345.505 169.595 343.657 162.351 342.865 151.628Z" fill="#FFEDD6"/>
<path d="M302.162 98.2275L293.012 98.5794C293.012 98.5794 284.919 90.6714 266.63 90.339C248.34 90.0067 231.097 106.155 231.097 106.155C231.097 106.155 217.969 107.035 189.827 107.035C161.685 107.035 139.642 104.835 113.846 105.275C88.0492 105.715 72.7512 105.881 68.0592 112.03C68.0592 112.03 64.7748 141.14 67.59 143.339C70.4052 145.539 78.3621 144.121 98.3716 146.252C126.162 149.214 152.31 150.553 177.638 151.873C202.965 153.193 252.006 150.417 274.518 149.097C297.03 147.777 303.951 145.363 303.951 145.363L302.162 98.2275Z" fill="#ED5820"/>
<path d="M294.645 98.6178C294.645 110.103 294.889 121.618 295.662 133.075C295.906 136.75 296.219 140.426 296.766 144.072C296.834 144.541 297.538 144.336 297.47 143.876C296.395 136.77 296.121 129.527 295.847 122.352C295.593 115.802 295.466 109.243 295.407 102.684C295.398 101.325 295.388 99.9667 295.388 98.608C295.378 98.1486 294.645 98.1486 294.645 98.6178Z" fill="#391457"/>
<path d="M247.568 93.9842C245.887 94.4631 244.323 95.5677 243.042 96.7212C241.117 98.4416 240.09 100.475 239.015 102.782C238.898 103.026 238.526 103.554 238.536 103.828C238.546 104.14 238.673 103.818 238.712 103.828C238.497 103.769 238.145 103.847 237.93 103.857C236.571 103.916 235.203 103.964 233.834 104.023C220.697 104.551 207.549 105.03 194.411 105.45C178.683 105.949 163.004 105.978 147.266 105.489C133.239 105.05 119.261 104.668 105.234 105.157C98.0784 105.411 90.8937 105.763 83.7872 106.711C79.0854 107.337 73.8949 108.05 69.6916 110.426C69.0171 110.807 68.3818 111.257 67.805 111.775C67.4531 112.097 67.9712 112.615 68.3231 112.293C71.0992 109.761 75.3807 108.92 78.9388 108.226C84.7452 107.102 90.6786 106.633 96.573 106.281C109.046 105.538 121.538 105.46 134.031 105.802C146.836 106.154 159.642 106.692 172.467 106.662C186.523 106.633 200.589 105.998 214.636 105.489C222.681 105.196 230.736 104.893 238.78 104.551C238.898 104.541 239.044 104.483 239.093 104.365C239.865 102.625 240.608 100.68 241.752 99.1454C243.16 97.249 245.447 95.3429 247.764 94.688C248.213 94.5609 248.018 93.8473 247.568 93.9842Z" fill="#391457"/>
<path d="M380.538 261.137C384.879 261.137 389.219 261.255 393.549 261.528C395.885 261.675 407.205 261.831 404.341 266.416C404.087 266.817 404.722 267.188 404.976 266.787C407.146 263.317 402.532 261.831 399.903 261.421C394.927 260.639 389.815 260.551 384.781 260.453C383.363 260.424 381.956 260.404 380.538 260.404C380.069 260.404 380.069 261.137 380.538 261.137Z" fill="#391457"/>
<path d="M383.979 257.423C389.619 257.746 395.259 258.235 400.87 258.88C403.822 259.222 407.117 259.398 409.902 260.532C411.545 261.197 412.239 262.35 412.512 264.051C412.591 264.52 413.294 264.315 413.216 263.855C412.972 262.331 412.385 261.05 411.007 260.248C408.7 258.929 405.65 258.743 403.089 258.42C396.745 257.609 390.352 257.062 383.969 256.69C383.51 256.661 383.51 257.394 383.979 257.423Z" fill="#391457"/>
<path d="M386.902 253.797C391.692 254.022 396.481 254.344 401.242 254.882C404.536 255.253 407.967 255.654 411.124 256.72C412.014 257.023 413.04 257.424 413.617 258.206C414.213 259.007 414.526 260.415 414.213 261.373C414.067 261.822 414.771 262.018 414.917 261.568C415.357 260.239 414.829 258.313 413.822 257.345C412.444 256.026 410.186 255.635 408.397 255.263C402.874 254.11 397.215 253.699 391.594 253.328C390.03 253.23 388.466 253.132 386.902 253.064C386.423 253.044 386.433 253.777 386.902 253.797Z" fill="#391457"/>
<path d="M68.1373 115.089C66.4951 113.701 64.4717 112.675 62.4678 111.932C58.7533 110.544 54.853 110.632 50.943 110.504C50.5618 110.495 49.9362 110.348 49.555 110.456C49.3986 110.505 49.4474 110.006 49.8189 110.622C49.6527 110.348 49.4181 110.104 49.2128 109.869C47.2969 107.601 44.7456 105.373 41.5981 105.588C39.7408 105.715 36.9451 106.536 36.5639 108.735C36.4857 109.195 37.1895 109.39 37.2677 108.931C37.6294 106.868 40.513 106.291 42.1846 106.301C45.2344 106.311 47.1503 108.862 49.076 110.847C49.5354 111.316 49.9557 111.199 50.6302 111.218C54.0222 111.335 57.5119 111.189 60.7963 112.137C63.2009 112.831 65.6936 113.975 67.629 115.607C67.9809 115.91 68.499 115.402 68.1373 115.089Z" fill="#391457"/>
<path d="M342.24 149.468C342.758 153.623 343.286 157.777 343.813 161.931C345.006 171.354 346.218 180.787 347.44 190.211C348.75 200.298 350.079 210.376 351.477 220.455C352.826 230.191 354.263 239.917 355.905 249.604C356.541 253.338 357.078 257.297 358.642 260.777C359.121 261.852 359.737 262.849 360.539 263.719C361.8 265.097 363.608 266.818 365.436 267.424C365.68 267.502 365.944 267.59 366.198 267.531C366.658 267.433 366.462 266.73 366.003 266.827C365.993 266.827 365.367 266.603 365.152 266.495C363.843 265.811 362.679 264.765 361.614 263.758C360.793 262.986 360.128 262.096 359.61 261.099C357.977 257.942 357.45 254.169 356.844 250.708C355.172 241.197 353.774 231.627 352.445 222.067C351.067 212.224 349.766 202.361 348.486 192.508C347.254 183.094 346.052 173.681 344.85 164.268C344.429 160.983 344.019 157.699 343.608 154.424C343.413 152.86 343.325 151.237 343.012 149.693C343.002 149.625 342.992 149.546 342.983 149.478C342.914 149.009 342.181 148.999 342.24 149.468Z" fill="#391457"/>
<path d="M226.513 26.1553C226.513 26.1553 226.483 26.4193 226.435 26.8689C226.327 27.7682 226.083 29.4104 225.623 31.1015C225.134 32.9588 224.401 34.8845 223.326 35.989C220.775 38.6088 211.264 35.8424 208.644 32.6069C206.034 29.3616 205.448 23.8973 205.448 23.8973C205.448 23.8973 200.609 22.6656 201.029 19C201.45 15.3344 204.196 13.9658 207.461 15.3148C207.461 15.3148 208.703 15.8036 209.025 17.26C209.025 17.26 213.874 15.0607 219.045 14.308C224.206 13.5651 226.112 11.9033 226.112 11.9033C226.112 11.9033 227.471 16.9668 227.51 18.8632L228.536 20.9355C228.536 20.9355 230.042 23.2717 229.963 24.2688C229.836 25.9403 228.087 26.7321 226.513 26.1553Z" fill="#FFA154"/>
<path d="M208.077 20.2222C207.5 19.0394 206.65 17.9251 205.692 17.0355C205.252 16.6152 204.763 16.2437 204.235 15.9309C203.825 15.6866 203.463 16.3219 203.864 16.5663C205.311 17.4167 206.435 18.7852 207.246 20.232C207.315 20.3493 207.383 20.4666 207.442 20.5936C207.647 21.014 208.282 20.6425 208.077 20.2222Z" fill="#391457"/>
<path d="M226.796 15.0708C225.379 14.7776 223.717 14.9731 222.486 15.7551C222.085 16.0092 222.456 16.6446 222.857 16.3905C223.61 15.9213 224.48 15.716 225.369 15.6964C225.682 15.6867 225.995 15.7062 226.308 15.7356C226.337 15.7356 226.356 15.7453 226.386 15.7453C226.474 15.7551 226.366 15.7453 226.396 15.7453C226.435 15.7551 226.474 15.7551 226.503 15.7649C226.542 15.7747 226.571 15.7746 226.611 15.7844C227.06 15.8724 227.256 15.1686 226.796 15.0708Z" fill="#391457"/>
<path d="M225.33 17.5532C223.991 17.211 223.219 20.2511 224.558 20.5932C225.897 20.9353 226.669 17.8953 225.33 17.5532Z" fill="#391457"/>
<path d="M225.623 31.1023L225.359 31.0339C222.564 30.3203 220.384 28.2871 220.736 26.5373C221.088 24.7974 222.857 24.3673 224.616 25.6869C225.369 26.2539 225.975 26.6253 226.435 26.8599C226.327 27.769 226.083 29.4112 225.623 31.1023Z" fill="#FFEDD6"/>
<path d="M196.142 32.4309C196.142 32.4309 190.003 29.5961 174.783 32.1279C159.554 34.6596 143.669 47.1228 139.867 49.2929C136.074 51.4629 135.214 51.1697 135.888 53.1247C136.573 55.0797 141.587 64.6299 147.775 70.7393C153.953 76.8487 168.908 87.0637 172.066 86.2132C175.223 85.3628 184.94 66.7902 192.144 59.6349C199.338 52.4795 204.744 35.3341 196.142 32.4309Z" fill="#6E369E"/>
<path d="M102.79 152.997C102.79 152.997 104.696 153.603 106.925 151.54C109.154 149.478 105.478 147.298 103.21 147.425C100.952 147.552 100.522 147.542 100.522 147.542L95.9182 147.151C95.9182 147.151 93.3766 146.086 90.6885 146.203C88.0004 146.321 86.0063 145.06 86.0063 145.06C86.0063 145.06 80.9526 145.196 79.6525 145.568C78.3524 145.949 76.7395 146.633 76.7395 146.633C76.7395 146.633 78.0787 150.231 81.3827 150.895C84.6866 151.56 87.4139 150.475 87.4139 150.475C87.4139 150.475 87.365 151.765 90.1313 152.401C92.8977 153.046 94.6572 152.029 94.6572 152.029C94.6572 152.029 95.0384 153.222 97.9318 153.437C100.825 153.652 101.373 153.241 101.373 153.241L102.79 152.997Z" fill="#FFA154"/>
<path d="M102.115 152.468C102.731 151.716 102.985 150.68 102.839 149.722C102.663 148.588 101.939 147.972 100.913 147.561C99.6228 147.043 98.1174 146.828 96.7196 146.828C95.8789 146.828 95.0383 146.828 94.1976 146.828C93.7284 146.828 93.7284 147.561 94.1976 147.561C95.2533 147.561 96.3188 147.503 97.3647 147.581C98.1467 147.639 98.9287 147.757 99.6912 147.942C100.424 148.128 101.392 148.382 101.842 149.047C102.213 149.594 102.203 150.416 102.027 151.031C101.959 151.276 101.861 151.501 101.734 151.716C101.695 151.784 101.646 151.853 101.597 151.921C101.548 151.989 101.578 151.94 101.588 151.94C101.304 152.312 101.812 152.83 102.115 152.468Z" fill="#391457"/>
<path d="M93.5819 152.586C94.0511 152.577 94.5203 152.361 94.8722 152.058C95.7324 151.335 95.8692 150.064 95.7226 149.018C95.5564 147.865 94.8722 146.927 93.8067 146.438C92.6728 145.91 91.3727 145.842 90.1411 145.812C89.5546 145.802 88.9681 145.793 88.3816 145.871C88.1861 145.89 87.9906 145.92 87.8146 145.998C87.3845 146.184 87.7559 146.819 88.1861 146.633C87.9905 146.721 88.3131 146.614 88.3816 146.604C88.6553 146.565 89.1245 146.545 89.4666 146.545C90.5712 146.536 91.7344 146.545 92.8097 146.848C93.6992 147.093 94.5301 147.601 94.8526 148.51C95.1557 149.361 95.185 150.622 94.5594 151.335C94.3737 151.54 94.1391 151.697 93.9045 151.775C93.8165 151.804 93.7187 151.824 93.621 151.843C93.7383 151.824 93.621 151.843 93.5819 151.843C93.1127 151.863 93.1127 152.596 93.5819 152.586Z" fill="#391457"/>
<path d="M86.6416 151.237C88.4304 150.817 89.3102 148.305 88.6455 146.741C87.7853 144.698 85.0385 144.522 83.1519 144.639C82.2428 144.698 81.3337 144.795 80.4247 144.932C79.9555 145.001 80.1607 145.705 80.6202 145.636C81.2164 145.548 81.8225 145.48 82.4285 145.421C83.3572 145.333 84.3542 145.216 85.2731 145.382C86.1137 145.529 87.0424 145.822 87.6386 146.477C88.3815 147.288 88.2154 148.598 87.6973 149.487C87.4236 149.957 86.9251 150.406 86.4559 150.514C85.9867 150.631 86.1822 151.345 86.6416 151.237Z" fill="#391457"/>
<path d="M398.397 94.649C397.684 94.649 397.019 94.5121 396.315 94.3069C394.947 93.8963 393.696 93.1045 392.972 91.8533C392.738 91.4428 392.102 91.8142 392.337 92.2248C393.471 94.1798 395.67 95.1279 397.85 95.3528C398.036 95.3723 398.221 95.3919 398.397 95.3919C398.867 95.3821 398.876 94.649 398.397 94.649Z" fill="#391457"/>
<path d="M297.91 151.442C297.91 151.442 296.004 152.048 293.775 149.986C291.546 147.923 295.222 145.743 297.489 145.87C299.748 145.998 300.178 145.988 300.178 145.988L304.782 145.597C304.782 145.597 307.323 144.531 310.011 144.649C312.699 144.766 314.694 143.505 314.694 143.505C314.694 143.505 319.747 143.642 321.047 144.013C322.347 144.394 323.96 145.079 323.96 145.079C323.96 145.079 322.621 148.676 319.317 149.341C316.013 150.005 313.286 148.92 313.286 148.92C313.286 148.92 313.335 150.211 310.568 150.846C307.802 151.491 306.043 150.474 306.043 150.474C306.043 150.474 305.661 151.667 302.768 151.882C299.875 152.097 299.327 151.687 299.327 151.687L297.91 151.442Z" fill="#FFA154"/>
<path d="M299.102 150.397C299.161 150.475 299.053 150.319 299.014 150.27C298.907 150.094 298.809 149.908 298.731 149.713C298.496 149.097 298.477 148.422 298.702 147.797C298.985 147.015 299.943 146.692 300.676 146.487C301.81 146.164 302.993 146.018 304.166 146.018C304.938 146.018 305.72 146.018 306.492 146.018C306.961 146.018 306.961 145.285 306.492 145.285C305.319 145.285 304.136 145.226 302.963 145.333C302.015 145.431 301.067 145.578 300.158 145.871C299.249 146.174 298.33 146.643 297.998 147.591C297.617 148.686 297.841 150.006 298.584 150.915C298.878 151.277 299.396 150.759 299.102 150.397Z" fill="#391457"/>
<path d="M307.108 150.299C307.079 150.299 307.059 150.299 307.03 150.29C307.001 150.29 307.108 150.309 307.02 150.29C306.971 150.28 306.922 150.27 306.874 150.26C306.658 150.202 306.473 150.114 306.287 149.957C305.583 149.361 305.544 148.208 305.72 147.377C306.199 145.119 308.926 145.021 310.784 145.001C311.272 144.992 311.771 145.001 312.25 145.05C312.308 145.06 312.387 145.08 312.484 145.089C312.533 145.099 312.66 145.158 312.494 145.08C312.924 145.265 313.296 144.63 312.866 144.444C312.348 144.219 311.663 144.258 311.116 144.258C309.845 144.249 308.477 144.278 307.274 144.718C306.209 145.109 305.368 145.862 305.055 146.986C304.762 148.051 304.831 149.449 305.603 150.309C305.974 150.72 306.541 151.013 307.098 151.033C307.587 151.042 307.587 150.309 307.108 150.299Z" fill="#391457"/>
<path d="M314.244 148.97C313.872 148.882 313.452 148.569 313.178 148.207C312.563 147.406 312.299 146.076 312.856 145.187C313.335 144.424 314.283 144.082 315.124 143.887C316.023 143.681 316.971 143.759 317.88 143.828C318.613 143.887 319.347 143.965 320.07 144.072C320.529 144.141 320.735 143.437 320.265 143.368C319.503 143.261 318.74 143.173 317.978 143.104C316.922 143.017 315.847 142.958 314.811 143.212C313.814 143.456 312.787 143.916 312.22 144.815C311.566 145.861 311.771 147.327 312.387 148.344C312.748 148.94 313.354 149.507 314.048 149.673C314.508 149.791 314.703 149.077 314.244 148.97Z" fill="#391457"/>
<path d="M212.446 34.6598C212.446 34.6598 215.692 60.6419 214.48 60.2411C213.268 59.8403 201.84 48.7359 197.97 40.0067C197.266 38.4232 194.978 32.0205 194.978 32.0205L212.446 34.6598Z" fill="#FFA154"/>
<path d="M63.2987 257.55C63.2303 255.4 63.1227 253.24 62.9859 251.089C62.8881 249.457 62.7708 247.824 62.6047 246.202C62.4874 245.097 62.4092 243.934 62.067 242.868C61.9204 242.419 61.2166 242.614 61.3632 243.064C61.6956 244.11 61.7836 245.253 61.8911 246.338C62.0573 247.971 62.1746 249.613 62.2723 251.245C62.3994 253.347 62.4971 255.449 62.5753 257.55C62.5753 258.02 63.3085 258.02 63.2987 257.55Z" fill="#391457"/>
<path d="M222.554 55.2856C224.626 58.3354 226.298 61.8153 227.363 65.3441C228.204 68.1105 228.702 71.1212 228.008 73.9755C227.334 76.7712 225.995 79.4495 223.942 81.4827C223.062 82.3527 221.958 83.2618 220.785 83.7017C220.345 83.8678 220.54 84.5717 220.98 84.4055C224.372 83.1445 226.796 79.6059 228.028 76.3899C230.237 70.6324 228.36 64.6305 225.731 59.3422C224.978 57.8271 224.147 56.3218 223.199 54.9141C222.925 54.5231 222.29 54.8946 222.554 55.2856Z" fill="#391457"/>
<path d="M178.625 69.8891C175.565 74.2585 172.506 78.6377 169.446 83.0072C169.016 83.623 168.576 84.2486 168.146 84.8645C168.312 84.8254 168.478 84.7765 168.644 84.7374C167.647 84.2388 166.65 83.7403 165.653 83.2418C165.233 83.0267 164.861 83.6621 165.282 83.8772C166.279 84.3757 167.276 84.8742 168.273 85.3727C168.459 85.4705 168.654 85.4119 168.772 85.2457C171.831 80.8762 174.891 76.497 177.95 72.1276C178.38 71.5117 178.82 70.8861 179.25 70.2703C179.534 69.8695 178.898 69.5078 178.625 69.8891Z" fill="#391457"/>
<path d="M200.404 83.6817C198.39 83.8674 196.357 83.926 194.324 83.9358C190.912 83.9358 187.276 83.8576 184.021 82.7042C183.571 82.5478 183.385 83.2516 183.825 83.408C187.07 84.5614 190.707 84.6592 194.118 84.6689C196.21 84.6689 198.312 84.6103 200.394 84.4148C200.873 84.3757 200.873 83.6426 200.404 83.6817Z" fill="#391457"/>
</svg>
