<svg width="427" height="435" viewBox="0 0 427 435" fill="none" xmlns="http://www.w3.org/2000/svg">
<path d="M427 330.551L408.02 373.927H0L33.8903 329.197L427 330.551Z" fill="#E9DBF9"/>
<path d="M344.383 187.638C372.362 185.612 394.953 192.921 409.456 211.432C433.949 242.721 429.976 289.486 404.607 310.51C379.229 331.535 336.251 330.942 312.085 316.368C278.46 296.087 278.124 258.737 283.681 236.226C289.22 213.706 311.714 189.992 344.383 187.638Z" fill="#FED7AB"/>
<path d="M175.725 67.5254C175.725 67.5254 174.442 65.7822 172.115 65.7822C169.788 65.7911 169.248 67.2511 169.248 67.2511C169.248 67.2511 167.912 65.7026 165.47 65.968C163.036 66.2247 162.85 67.7378 162.85 67.7378C162.85 67.7378 161.222 65.5787 159.187 66.145C157.152 66.7113 156.727 67.7201 156.727 67.7201C156.727 67.7201 154.993 65.7645 152.949 66.4813C150.914 67.2069 150.276 68.4103 150.055 69.5694C149.834 70.7286 152.259 78.9313 152.259 78.9313L177.132 78.8959L175.725 67.5254Z" fill="#FFA154"/>
<path d="M188.158 61.0748C190.414 60.8978 196.024 60.1102 197.219 61.4995C198.404 62.8887 200.05 88.6029 197.865 91.753C195.679 94.9031 184.751 94.3899 184.008 93.1599C183.273 91.93 183.503 87.6826 183.503 87.6826C183.503 87.6826 181.831 63.6409 182.609 62.4463C183.388 61.234 186.733 61.1809 188.158 61.0748Z" fill="#A66BE1"/>
<path d="M164.965 199.026C164.824 198.566 177.477 180.957 180.778 167.047C184.078 153.128 183.804 127.29 183.893 122.582C183.981 117.875 183.689 101.151 183.494 95.3729C183.3 89.5948 182.91 86.0907 182.91 86.0907L169.398 85.3828C169.398 85.3828 171.566 131.467 169.124 148.288C166.682 165.109 161.32 175.489 158.187 180.143C155.064 184.797 154.896 185.549 154.896 185.549L164.965 199.026Z" fill="#FFA154"/>
<path d="M83.841 177.524C83.841 177.524 86.938 169.48 76.9833 170.4C67.0286 171.321 64.9845 181.957 63.029 187.806C61.0734 193.664 61.7813 195.513 61.7813 195.513C61.7813 195.513 57.7906 192.496 50.4108 193.46C43.0311 194.425 39.2438 199.875 40.5623 207.998C41.8807 216.121 50.9506 223.289 60.162 222.722C69.3735 222.156 72.4351 215.962 72.1431 212.272C71.8422 208.582 69.7009 205.229 69.7009 205.229C69.7009 205.229 73.9748 213.042 82.0978 211.724C90.2209 210.405 92.1499 205.653 92.5923 201.981C93.0259 198.318 83.841 177.524 83.841 177.524Z" fill="#391457"/>
<path d="M108.953 219.447C80.7439 217.412 57.9587 224.774 43.3407 243.445C18.6441 274.99 22.6437 322.145 48.234 343.346C73.8243 364.547 117.156 363.954 141.525 349.248C175.433 328.799 175.769 291.139 170.168 268.433C164.576 245.728 141.888 221.828 108.953 219.447Z" fill="#BF94EC"/>
<path d="M319.79 316.358C319.79 316.358 313.667 328.764 314.649 335.037C315.631 341.311 388.579 338.639 389.73 336.453C390.871 334.268 394.313 327.702 386.995 325.357C379.678 323.012 348.194 313.58 344.885 313.518C341.566 313.456 319.79 316.358 319.79 316.358Z" fill="#A66BE1"/>
<path d="M392.402 330.985C392.402 330.985 389.092 330.923 386.102 333.073C383.12 335.223 357.724 334.745 357.724 334.745L372.705 340.55C372.705 340.55 392.198 341.656 394.844 338.019C397.499 334.391 392.402 330.985 392.402 330.985Z" fill="white"/>
<path d="M308.88 328.667C308.88 328.667 302.756 341.072 303.739 347.346C304.721 353.62 377.669 350.947 378.819 348.762C379.961 346.576 383.403 340.011 376.085 337.666C368.767 335.321 337.284 325.888 333.974 325.826C330.656 325.764 308.88 328.667 308.88 328.667Z" fill="#A66BE1"/>
<path d="M167.646 243.172L191.901 206.45C191.901 206.45 245.461 189.053 273.857 185.169C302.243 181.284 316.507 185.974 326.763 197.584C337.018 209.193 340.425 233.925 342.416 251.994C344.407 270.063 351.114 308.855 345.991 313.173C340.867 317.491 321.082 323.376 314.941 319.58C308.809 315.784 292.793 229.695 285.811 229.934C278.83 230.173 201.209 253.003 186.901 250.888C172.584 248.782 167.646 243.172 167.646 243.172Z" fill="#7B39B7"/>
<path d="M146.994 100.592C146.994 100.592 143.994 98.3537 142.419 95.9292C140.844 93.5047 138.579 84.7357 137.826 81.4528C137.074 78.17 138.968 74.719 140.8 74.312C142.631 73.9138 148.109 84.2578 149.436 89.0803C150.763 93.9028 146.994 100.592 146.994 100.592Z" fill="#FFA154"/>
<path d="M167.018 75.463C167.832 75.0383 174.929 75.1799 174.929 75.1799C174.929 75.1799 174.672 67.5435 176.115 66.0481C177.557 64.5527 187.715 63.4289 189.688 65.8711C191.67 68.3045 192.555 96.2219 191.502 98.6022C190.44 100.983 177.654 102.487 176.69 99.6287C175.725 96.7706 175.46 89.7978 175.46 89.7978L136.765 89.9394C136.765 89.9394 137.809 99.1155 134.942 100.584C132.075 102.053 122.952 102.319 121.377 100.328C119.793 98.3368 118.873 72.1625 119.324 69.5521C119.775 66.9418 134.199 65.0393 135.367 67.6762C136.535 70.3131 136.225 75.755 136.225 75.755L167.018 75.463Z" fill="#A66BE1"/>
<path d="M176.221 198.415C176.221 198.415 191.529 206.432 191.901 206.441C192.272 206.45 168.726 244.295 167.646 243.163C166.567 242.039 158.497 240.411 158.497 240.411L176.221 198.415Z" fill="#FFA154"/>
<path d="M173.035 89.6383C172.557 85.1963 171.053 76.1973 167.903 72.8613C164.744 69.5342 163.319 69.6139 162.054 69.9147C160.798 70.2156 160.32 71.6225 160.32 71.6225C160.32 71.6225 158.922 69.7466 156.409 70.2421C153.896 70.7376 154.4 72.3835 154.4 72.3835C154.4 72.3835 153.542 70.4014 151.037 70.3572C148.533 70.3129 148.312 72.702 148.312 72.702C148.312 72.702 146.737 70.7111 144.489 71.7552C142.233 72.7994 141.463 75.8433 141.72 76.2769C141.976 76.7193 143.348 79.9048 144.286 82.3205C145.224 84.7362 144.534 89.4083 144.684 90.8329C144.835 92.2487 148.232 100.814 148.586 100.823C148.94 100.832 173.628 100.425 173.637 99.6638C173.663 98.9206 173.301 92.1336 173.035 89.6383Z" fill="#FFA154"/>
<path d="M79.8944 174.886C79.8944 174.886 82.7879 174.656 84.8673 174.576C86.7344 174.505 89.9995 174.868 89.9995 174.868C89.9995 174.868 93.7425 173.293 95.1849 173.32C96.6272 173.346 96.6006 174.992 96.3706 176.019C96.1494 177.045 96.1494 177.045 96.1494 177.045C96.1494 177.045 105.193 178.655 106.812 180.133C108.431 181.611 108.98 185.327 107.688 188.194C106.396 191.052 103.812 196.99 101.087 199.202C98.3615 201.414 85.0089 199.105 85.0089 199.105C85.0089 199.105 83.5223 201.343 79.1865 201.671C74.8507 201.998 73.4437 200.122 73.6915 197.653C73.9393 195.185 76.6646 193.176 76.6646 193.176L78.5317 192.388C78.5317 192.388 76.5496 188.23 76.762 187.823C76.9832 187.407 79.5935 180.248 79.8944 174.886Z" fill="#FFA154"/>
<path d="M102.804 191.964C102.804 191.964 112.431 193.804 112.413 194.91C112.395 196.016 104.812 212.528 103.432 212.501C102.051 212.475 78.6379 199.883 78.6379 199.883C78.6379 199.883 87.053 193.043 91.2119 192.026C95.3707 190.999 102.804 191.964 102.804 191.964Z" fill="#FFA154"/>
<path d="M108.431 196.663C114.625 188.54 128.093 182.372 137.225 179.727C146.357 177.072 155.922 182.868 157.506 185.876C159.09 188.885 160.054 189.708 160.054 189.708C160.054 189.708 172.035 193.893 176.265 195.557C180.495 197.229 182.247 197.787 182.132 199.415C182.017 201.052 172.664 217.873 169.77 222.749C166.877 227.633 159.214 245.826 157.444 245.543C155.674 245.26 121.89 231.093 115.183 228.314C108.476 225.536 100.662 220.156 101.246 211.714C101.237 211.723 102.237 204.786 108.431 196.663Z" fill="#7B39B7"/>
<path d="M145.622 146.278C145.622 146.278 137.065 159.631 129.978 169.966C122.899 180.292 109.183 198.353 107.653 204.202C106.122 210.059 106.909 222.067 116.59 224.43C126.27 226.792 131.597 223.403 135.729 219.563C139.853 215.714 152.029 196.839 157.444 189.097C162.859 181.354 169.814 168.426 171.584 163.533C173.186 159.091 173.433 148.774 173.433 148.774L145.622 146.278Z" fill="#FFA154"/>
<path d="M144.578 153.304C144.578 153.304 147.206 130.138 147.171 116.078C147.135 103.654 146.41 92.1953 146.41 92.1953C146.41 92.1953 172.168 92.5758 173.079 92.5935C173.991 92.6112 174.566 126.413 174.407 134.908C174.248 143.402 174.079 152.34 172.566 157.33C171.044 162.303 144.578 153.304 144.578 153.304Z" fill="#FFA154"/>
<path d="M167.646 243.172C167.646 243.172 172.044 256.878 182.371 264.435C192.697 271.992 207.793 273.752 218.703 271.009C229.613 268.266 234.409 261.002 234.409 261.002C234.409 261.002 259.655 259.267 285.855 247.985C285.855 247.985 320.259 233.544 323.152 224.395C326.037 215.245 320.542 198.203 296.916 196.654C273.281 195.106 216.314 213.175 201.466 219.148C186.609 225.12 167.646 243.172 167.646 243.172Z" fill="#7B39B7"/>
<path d="M282.254 233.358C282.254 233.358 283.236 257.559 291.908 291.538C295.111 304.103 296.677 311.881 299.642 319.234C301.871 324.782 305.376 330.189 311.065 329.826C316.958 329.446 326.32 328.304 331.727 327.64C335.541 327.171 338.549 325.278 339.381 321.34C341.274 312.288 339.045 297.378 337.859 287.777C333.921 255.728 326.356 219.174 322.232 211.714C315.852 200.185 282.254 233.358 282.254 233.358Z" fill="#7B39B7"/>
<path d="M200.749 210.98C214.438 207.175 228.171 203.494 241.931 199.919C252.611 197.149 263.3 194.238 274.219 192.601C282.519 191.353 291.226 190.69 299.491 192.504C302.8 193.229 306.013 194.389 308.941 196.096C311.888 197.822 314.215 200.22 316.153 203.016C320.79 209.714 323.444 217.749 325.639 225.527C329.674 239.835 332.178 254.577 334.576 269.23C335.797 276.69 336.965 284.167 337.974 291.653C338.938 298.794 339.354 305.943 339.62 313.146C339.655 314.102 339.69 315.057 339.717 316.004C339.726 316.429 340.39 316.429 340.381 316.004C340.195 309.2 339.965 302.351 339.151 295.59C338.31 288.627 337.239 281.698 336.142 274.77C333.762 259.771 331.258 244.728 327.524 230.004C325.497 222.023 323.09 213.953 319.162 206.679C317.489 203.582 315.489 200.565 312.888 198.158C310.578 196.026 307.738 194.512 304.809 193.389C297.633 190.628 289.678 190.424 282.104 191.017C271.45 191.858 261.026 194.353 250.7 196.981C234.241 201.167 217.836 205.556 201.475 210.086C201.174 210.166 200.873 210.254 200.581 210.334C200.156 210.449 200.333 211.095 200.749 210.98Z" fill="#391457"/>
<path d="M283.351 249.357C289.271 246.87 295.341 244.269 300.774 240.818C301.137 240.588 300.801 240.013 300.438 240.243C295.076 243.649 288.935 246.295 283.174 248.72C282.785 248.879 282.953 249.516 283.351 249.357Z" fill="#391457"/>
<path d="M335.709 326.552C341.133 327.968 346.548 329.419 351.955 330.879C359.122 332.826 366.449 334.569 373.439 337.082C376.014 338.002 378.855 339.435 380.146 341.993C381.191 344.054 380.819 346.638 379.97 348.7C379.81 349.098 380.447 349.266 380.607 348.877C381.341 347.098 381.713 344.895 381.226 342.993C380.722 341.046 379.315 339.515 377.678 338.409C374.749 336.418 371.032 335.56 367.679 334.578C359.308 332.118 350.866 329.879 342.434 327.631C340.248 327.047 338.062 326.472 335.877 325.897C335.479 325.809 335.302 326.446 335.709 326.552Z" fill="#391457"/>
<path d="M304.146 345.152C304.146 345.152 295.961 349.78 298.81 354.62C301.668 359.46 329.727 354.832 337.434 356.089C345.141 357.336 379.757 356.885 383.164 352.169C386.571 347.444 381.863 342.94 379.262 344.364C376.66 345.789 378.492 346.187 372.192 348.284C365.891 350.373 354.574 345.373 339.469 346.196C324.365 347.001 319.586 346.541 304.146 345.152Z" fill="white"/>
<path d="M144.587 148.402C147.445 149.357 150.303 150.331 153.144 151.339C153.551 151.481 153.719 150.844 153.32 150.702C150.48 149.694 147.622 148.72 144.764 147.765C144.357 147.623 144.18 148.26 144.587 148.402Z" fill="#391457"/>
<path d="M161.045 184.708C162.992 181.85 164.788 178.877 166.478 175.868C168.894 171.55 171.31 166.984 172.221 162.073C173.071 157.516 173.38 152.844 173.708 148.225C174.088 142.65 174.345 137.067 174.548 131.492C174.69 127.422 174.867 123.343 174.84 119.272C174.814 114.229 174.566 109.194 174.301 104.159C173.947 97.363 173.779 90.5938 172.681 84.0016C172.239 81.3735 171.655 78.7189 170.575 76.2679C169.567 73.9672 167.823 71.4099 165.567 70.1888C164.16 69.4279 161.939 69.2243 160.47 69.9411C160.125 70.1092 159.559 70.472 159.55 70.9233C159.541 71.3746 160.16 71.9409 160.382 72.3391C160.806 73.1089 161.134 73.9407 161.39 74.7813C161.612 75.498 161.851 76.4891 161.93 77.1173C161.983 77.5332 162.647 77.5421 162.594 77.1173C162.337 75.1529 161.7 73.1266 160.629 71.4542C160.382 71.0737 160.134 71.1622 160.337 70.8171C160.647 70.3039 161.815 70.2596 162.275 70.2331C163.063 70.18 163.859 70.2065 164.611 70.4808C167.115 71.3834 168.991 74.2681 170.009 76.6041C171.053 79.0021 171.619 81.6124 172.044 84.1785C173.097 90.4788 173.256 96.9471 173.593 103.345C174.053 112.061 174.23 120.715 173.947 129.439C173.61 139.553 173.363 149.809 171.911 159.843C171.257 164.4 169.602 168.506 167.487 172.585C165.496 176.426 163.266 180.142 160.886 183.743C160.744 183.956 160.612 184.159 160.47 184.372C160.24 184.726 160.806 185.062 161.045 184.708Z" fill="#391457"/>
<path d="M160.125 70.7381C158.807 69.1719 155.887 69.1453 154.453 70.5346C154.196 70.7823 153.993 71.0832 153.887 71.4194C153.789 71.7203 153.834 71.8796 154.081 72.1008C154.913 72.8441 155.347 73.9944 155.674 75.0297C155.913 75.773 156.108 76.5428 156.223 77.3126C156.285 77.7374 156.931 77.5516 156.86 77.1357C156.736 76.3481 156.541 75.5695 156.294 74.8173C155.913 73.6316 155.382 72.2955 154.373 71.4991C154.409 71.5787 154.435 71.6584 154.471 71.738C154.453 71.8796 154.497 71.6495 154.515 71.5876C154.559 71.4637 154.648 71.3133 154.745 71.1894C155.205 70.6142 155.975 70.3576 156.674 70.2514C157.701 70.0921 158.939 70.3842 159.638 71.2159C159.93 71.5345 160.391 71.0655 160.125 70.7381Z" fill="#391457"/>
<path d="M154.435 71.569C153.993 70.9053 153.294 70.3833 152.559 70.0912C151.126 69.5249 149.33 69.9851 148.224 71.0292C147.949 71.2858 147.693 71.6044 147.569 71.9672C147.533 72.0822 147.578 72.2061 147.657 72.2857C148.356 73.0644 148.648 74.2147 148.887 75.1969C148.993 75.6482 149.091 76.0995 149.17 76.5596C149.197 76.7012 149.215 76.8516 149.241 76.9932C149.25 77.0374 149.25 77.0728 149.259 77.1171C149.268 77.179 149.25 77.0286 149.259 77.0994C149.312 77.5153 149.976 77.5241 149.923 77.0994C149.834 76.3738 149.693 75.657 149.516 74.9492C149.241 73.8608 148.896 72.6662 148.135 71.8167C148.162 71.9229 148.188 72.0291 148.224 72.1353C148.241 72.0822 148.179 72.2149 148.233 72.1087C148.268 72.038 148.303 71.9672 148.348 71.9052C148.489 71.684 148.684 71.4893 148.887 71.3301C149.604 70.7637 150.586 70.4452 151.498 70.516C152.152 70.5691 152.79 70.8522 153.285 71.277C153.515 71.4716 153.754 71.7282 153.869 71.9052C154.099 72.2592 154.674 71.9229 154.435 71.569Z" fill="#391457"/>
<path d="M182.494 64.8449C184.087 64.7122 185.777 64.6502 187.352 64.9422C188.857 65.2254 189.68 66.1987 189.98 67.6499C190.476 70.0302 190.6 72.5255 190.794 74.95C191.025 77.8435 191.193 80.7459 191.325 83.6571C191.485 87.1081 191.582 90.559 191.555 94.0189C191.555 94.4436 192.219 94.4436 192.219 94.0189C192.263 87.5682 191.945 81.0998 191.432 74.6757C191.237 72.2158 191.148 69.6232 190.564 67.2163C190.281 66.0572 189.547 64.9865 188.405 64.544C186.627 63.8538 184.362 64.0308 182.503 64.1901C182.07 64.2166 182.07 64.8803 182.494 64.8449Z" fill="#391457"/>
<path d="M84.2214 175.816C84.1595 176.532 84.1772 177.249 84.2126 177.966C84.2922 179.32 84.5223 180.691 85.0974 181.93C85.2744 182.319 85.8496 181.983 85.6726 181.594C85.124 180.426 84.9293 179.098 84.8674 177.815C84.832 177.152 84.8231 176.479 84.8851 175.816C84.9205 175.391 84.2568 175.391 84.2214 175.816Z" fill="#391457"/>
<path d="M97.4767 177.487C97.4767 177.523 97.4678 177.549 97.4678 177.584C97.4767 177.469 97.4678 177.576 97.459 177.629C97.4501 177.682 97.4413 177.735 97.4324 177.788C97.3705 178.115 97.282 178.443 97.1758 178.752C96.8573 179.708 96.3263 180.593 95.6184 181.31C95.0787 181.849 94.4416 182.265 93.7425 182.584C93.3532 182.761 93.6894 183.327 94.0788 183.159C96.1582 182.221 97.6005 180.283 98.0518 178.062C98.0872 177.876 98.1226 177.682 98.1403 177.487C98.1757 177.062 97.5121 177.071 97.4767 177.487Z" fill="#391457"/>
<path d="M79.5139 194.654C79.2042 194.805 78.9211 194.991 78.6468 195.185C78.0362 195.628 77.4787 196.15 77.054 196.778C76.7797 197.185 76.5762 197.636 76.4523 198.114C76.3461 198.53 76.9921 198.707 77.0894 198.291C77.2752 197.548 77.7 196.92 78.2309 196.389C78.6468 195.973 79.045 195.681 79.5493 195.38C79.6467 195.327 79.744 195.274 79.8413 195.221C80.0006 195.141 80.0448 194.911 79.9564 194.769C79.8767 194.61 79.6821 194.575 79.5139 194.654Z" fill="#391457"/>
<path d="M86.354 178.621C86.4248 177.001 89.451 177.143 89.3714 178.762C89.3006 180.381 86.2743 180.24 86.354 178.621Z" fill="#391457"/>
</svg>
