<svg width="45" height="47" viewBox="0 0 45 47" fill="none" xmlns="http://www.w3.org/2000/svg">
<path d="M29.1569 46.3105V39.4355C30.1469 39.4355 30.9902 39.3805 31.6869 39.2705C32.3835 39.1605 32.9335 38.9588 33.3369 38.6655C33.7402 38.3355 34.0335 37.8771 34.2169 37.2905C34.4002 36.6671 34.4919 35.8788 34.4919 34.9255V0.605469H44.3369V35.3655C44.3369 37.7855 44.0252 39.8205 43.4019 41.4705C42.8152 43.0838 41.7702 44.2938 40.2669 45.1005C38.7635 45.9071 36.6552 46.3105 33.9419 46.3105H29.1569Z" fill="#333333"/>
<path d="M13.365 45.815C10.0283 45.815 7.38833 45.2283 5.445 44.055C3.50167 42.8817 2.10833 41.195 1.265 38.995C0.421667 36.795 0 34.1733 0 31.13V14.575C0 11.495 0.421667 8.87333 1.265 6.71C2.10833 4.54667 3.50167 2.89667 5.445 1.76C7.38833 0.586667 10.0283 0 13.365 0C16.7383 0 19.3967 0.586667 21.34 1.76C23.32 2.89667 24.7317 4.54667 25.575 6.71C26.4183 8.87333 26.84 11.495 26.84 14.575V31.13C26.84 34.1733 26.4183 36.795 25.575 38.995C24.7317 41.195 23.32 42.8817 21.34 44.055C19.3967 45.2283 16.7383 45.815 13.365 45.815ZM13.365 38.83C14.3917 38.83 15.1433 38.5733 15.62 38.06C16.0967 37.5467 16.4083 36.8867 16.555 36.08C16.7017 35.2733 16.775 34.4483 16.775 33.605V12.155C16.775 11.275 16.7017 10.45 16.555 9.68C16.4083 8.87333 16.0967 8.21333 15.62 7.7C15.1433 7.18667 14.3917 6.93 13.365 6.93C12.4117 6.93 11.6967 7.18667 11.22 7.7C10.7433 8.21333 10.4317 8.87333 10.285 9.68C10.1383 10.45 10.065 11.275 10.065 12.155V33.605C10.065 34.4483 10.12 35.2733 10.23 36.08C10.3767 36.8867 10.67 37.5467 11.11 38.06C11.5867 38.5733 12.3383 38.83 13.365 38.83Z" fill="#333333"/>
</svg>
